<svg width="307" height="1217" viewBox="0 0 307 1217" fill="none" xmlns="http://www.w3.org/2000/svg">
<rect x="26" y="4" width="255" height="1209" rx="127.5" stroke="#97A547" stroke-width="7"/>
<path d="M23.7229 416.655C24.9202 415.259 27.0798 415.259 28.2771 416.655L44.2679 435.297C45.937 437.243 44.5544 440.25 41.9909 440.25L10.0091 440.25C7.44556 440.25 6.06302 437.243 7.73208 435.297L23.7229 416.655Z" fill="#97A547"/>
<path d="M283.277 446.345C282.08 447.741 279.92 447.741 278.723 446.345L262.732 427.703C261.063 425.757 262.446 422.75 265.009 422.75L296.991 422.75C299.554 422.75 300.937 425.757 299.268 427.703L283.277 446.345Z" fill="#97A547"/>
<path d="M23.7229 843.655C24.9202 842.259 27.0798 842.259 28.2771 843.655L44.2679 862.297C45.937 864.243 44.5544 867.25 41.9909 867.25L10.0091 867.25C7.44556 867.25 6.06302 864.243 7.73208 862.297L23.7229 843.655Z" fill="#97A547"/>
<path d="M283.277 873.345C282.08 874.741 279.92 874.741 278.723 873.345L262.732 854.703C261.063 852.757 262.446 849.75 265.009 849.75L296.991 849.75C299.554 849.75 300.937 852.757 299.268 854.703L283.277 873.345Z" fill="#97A547"/>
</svg>
