<?xml version="1.0" standalone="no"?>
<!DOCTYPE svg PUBLIC "-//W3C//DTD SVG 20010904//EN"
 "http://www.w3.org/TR/2001/REC-SVG-20010904/DTD/svg10.dtd">
<svg version="1.0" xmlns="http://www.w3.org/2000/svg"
 width="1280.000000pt" height="1280.000000pt" viewBox="0 0 1280.000000 1280.000000"
 preserveAspectRatio="xMidYMid meet">
<metadata>
Created by potrace 1.14, written by Peter Selinger 2001-2017
</metadata>
<g transform="translate(0.000000,1280.000000) scale(0.100000,-0.100000)"
fill="#000000" stroke="none">
<path d="M9766 11373 c-3 -16 -8 -66 -11 -113 -4 -47 -8 -92 -10 -100 -2 -8
-6 -42 -10 -75 -9 -100 -16 -159 -20 -185 -7 -40 -13 -81 -20 -139 -4 -30 -8
-61 -10 -70 -3 -17 -14 -88 -21 -136 -2 -16 -9 -52 -14 -80 -5 -27 -12 -63
-15 -80 -23 -141 -100 -493 -151 -690 -70 -274 -215 -742 -286 -925 -14 -36
-43 -110 -63 -165 -38 -100 -172 -425 -215 -520 -35 -77 -286 -581 -329 -660
-129 -239 -369 -632 -509 -835 -36 -52 -86 -124 -111 -160 -51 -74 -182 -252
-191 -260 -3 -3 -17 -21 -30 -40 -23 -33 -208 -269 -220 -280 -3 -3 -25 -30
-50 -60 -25 -30 -49 -60 -55 -66 -5 -6 -37 -42 -70 -80 -233 -267 -503 -548
-710 -739 -22 -20 -65 -60 -95 -89 -30 -28 -107 -96 -170 -151 -63 -54 -117
-102 -120 -105 -5 -5 -97 -81 -130 -107 -28 -22 -105 -84 -128 -105 -39 -32
-372 -281 -442 -329 -225 -156 -336 -229 -500 -331 -102 -63 -212 -130 -245
-148 -33 -18 -114 -64 -180 -102 -125 -71 -594 -306 -750 -376 -445 -199 -948
-379 -1429 -513 -160 -44 -344 -91 -409 -103 -12 -2 -71 -16 -132 -29 -60 -14
-162 -35 -225 -46 -145 -26 -152 -28 -228 -42 l-62 -13 0 -463 0 -463 4988 0
c3866 0 4991 3 5000 12 9 9 12 1134 12 5000 l0 4988 -814 0 -814 0 -6 -27z"/>
</g>
</svg>
