<svg width="339" height="273" viewBox="0 0 339 273" fill="none" xmlns="http://www.w3.org/2000/svg">
<g clip-path="url(#clip0_5448_162)">
<path d="M148.844 136.167C159.724 121.83 165.876 103.111 164.002 80.9097C159.301 25.2223 121.681 -1.50328 76.0211 2.3511C30.3627 6.20647 -2.24451 38.8607 2.45695 94.5481C6.75637 145.475 49.6075 171.265 89.9945 167.854C107.299 166.393 124.148 159.567 137.419 148.241C142.303 150.484 154.202 155.408 159.793 157.387C156.542 150.465 152.388 142.574 148.844 136.167Z" fill="white"/>
<path d="M157.983 209.345C161.626 200.779 165.921 192.491 170.827 184.58C170.827 184.58 173.237 177.855 183.596 182.273C189.625 184.843 199.432 181.26 204.56 177.439C210.683 172.877 217.129 166.375 217.129 166.375C217.603 166.712 217.924 166.896 218.432 167.196C227.189 172.362 240.402 175.251 251.686 175.508C262.958 175.254 276.1 172.373 284.866 167.232C285.323 166.964 285.685 166.791 286.175 166.499C284.983 166.03 282.396 165.073 282.37 165.063C287.277 165.544 292.142 166.843 296.809 168.372C301.059 169.762 305.14 171.533 309.12 173.573C314.31 176.233 318.941 179.973 322.631 184.494C333.545 197.833 335.353 216.219 336.878 233.335C337.905 244.863 328.83 254.789 317.256 254.789C276.634 254.789 197.572 254.789 197.572 254.789C191.926 262.209 184.081 268.372 174.92 270.112C165.759 271.852 155.319 268.371 150.514 260.38C145.718 252.406 147.297 242.239 149.718 233.254C151.914 225.106 154.679 217.112 157.98 209.347L157.983 209.345Z" fill="white"/>
<path d="M300.245 62.708C297.639 55.3623 293.705 48.6047 288.911 44.0112C285.671 40.9069 284.548 39.3268 281.399 37.4836L274.133 33.8812C267.402 31.152 260.39 29.3418 250.432 29.3418C234.105 29.3418 219.572 37.7536 213.124 43.9272C202.426 54.1692 195.64 72.877 196.496 98.6745C196.496 116.159 195.063 128.767 193.056 135.937C191.691 140.843 190.524 149.01 190.474 153.995C190.433 158.976 194.247 165.289 200.756 168.057C212.439 166.281 217.129 166.373 217.129 166.373C218.402 165.872 220.523 165.071 220.523 165.071C223.778 163.847 226.419 162.858 228.989 160.787C230.203 159.807 230.957 158.552 231.518 157.104C231.936 156.003 232.024 154.783 232.107 153.654C232.277 151.325 232.237 150.534 232.257 148.841C227.786 146.69 223.778 143.263 219.965 138.664C215.042 132.725 212.251 126.337 210.715 121.047C208.591 121.586 206.3 120.789 204.783 119.538C201.361 116.714 199.951 112.791 199.091 110.227C197.877 106.605 197.823 100.76 199.664 97.5954C200.281 96.5353 201.712 94.7312 205.059 94.6261C206.306 94.5871 207.723 94.9012 208.922 95.7083C218.092 88.9096 228.665 78.9576 238.147 69.6447C237.823 72.386 236.687 77.0724 236.503 79.9087C236.429 81.0488 236.672 81.4439 237.537 81.8529C238.205 82.0959 239.183 81.9619 239.845 81.7469C251.09 78.0905 260.434 71.1069 267.402 61.6809C268.911 67.4795 271.051 74.6942 272.913 78.2116C277.589 87.0384 285.571 94.4521 292.597 96.4473C293.899 95.3412 295.569 94.9282 297.009 94.9842C300.355 95.1152 301.771 96.9304 302.38 97.9955C304.197 101.175 304.096 107.019 302.855 110.631C301.976 113.188 300.536 117.101 297.092 119.897C295.673 121.049 293.587 121.804 291.597 121.46C291.597 121.46 291.406 121.427 291.071 121.369C290.431 123.454 289.643 125.496 289.162 126.487C287.773 130.212 280.222 143.122 270.655 148.424C270.688 150.42 270.628 151.143 270.811 153.654C270.893 154.783 270.981 156.003 271.399 157.104C271.96 158.552 272.715 159.807 273.929 160.787C276.492 162.852 279.127 163.842 282.369 165.061C287.276 165.542 292.141 166.841 296.808 168.37C297.762 168.682 298.704 169.019 299.642 169.368C305.239 168.039 310.159 163.852 311.975 158.213C314.229 151.217 311.428 142.149 309.342 135.101C305.747 122.956 304.304 110.621 304.134 97.9755C304.373 90.6748 303.863 82.0209 303.603 78.3966C303.233 73.2361 302.061 67.8285 300.244 62.707L300.245 62.708Z" fill="#FEBE69"/>
<path d="M271.072 148.19C270.934 148.27 270.795 148.349 270.656 148.426C270.689 150.421 270.629 151.144 270.812 153.655C270.894 154.784 270.982 156.004 271.4 157.105C271.961 158.554 272.716 159.809 273.93 160.788C276.5 162.858 279.142 163.848 282.395 165.072C282.395 165.072 284.982 166.029 286.174 166.498C285.684 166.79 285.322 166.963 284.865 167.231C276.098 172.373 262.956 175.254 251.685 175.507C240.401 175.25 227.188 172.361 218.431 167.195C217.924 166.896 217.602 166.711 217.128 166.374C218.401 165.873 220.522 165.072 220.522 165.072C223.776 163.848 226.418 162.859 228.988 160.788C230.202 159.809 230.956 158.554 231.517 157.105C231.935 156.004 232.023 154.784 232.105 153.655C232.275 151.326 232.236 150.535 232.256 148.843C227.785 146.691 223.777 143.264 219.964 138.666C215.041 132.726 212.25 126.338 210.714 121.048C208.59 121.587 206.299 120.79 204.782 119.539C201.359 116.715 199.95 112.792 199.09 110.228C197.877 106.607 197.822 100.761 199.663 97.5966C200.28 96.5365 201.711 94.7323 205.058 94.6273C206.305 94.5883 207.722 94.9024 208.921 95.7094C218.091 88.9108 228.664 78.9588 238.146 69.6459C237.822 72.3872 236.686 77.0736 236.502 79.9099C236.428 81.05 236.671 81.4451 237.536 81.8541C238.204 82.0971 239.182 81.9631 239.844 81.7481C251.089 78.0917 260.433 71.108 267.401 61.6821C268.91 67.4807 271.05 74.6954 272.912 78.2127C277.588 87.0396 285.57 94.4533 292.596 96.4485C293.897 95.3424 295.568 94.9294 297.008 94.9854C300.353 95.1164 301.77 96.9316 302.379 97.9967C304.196 101.176 304.095 107.021 302.854 110.632C301.975 113.189 300.535 117.103 297.091 119.898C295.672 121.05 293.586 121.805 291.596 121.461L291.07 121.37C290.43 123.455 289.642 125.497 289.161 126.488C287.793 130.159 280.439 142.75 271.069 148.19H271.072Z" fill="white"/>
<path d="M301.929 97.9746C302.093 109.103 303.243 120.253 305.956 131.063C307.193 135.989 308.897 140.792 309.892 145.78C310.745 150.055 311.225 154.894 309.339 158.973C307.396 163.175 303.553 166.135 299.104 167.26C296.36 167.953 297.523 172.199 300.274 171.504C304.828 170.353 308.812 167.636 311.569 163.842C314.516 159.788 315.322 154.748 314.9 149.843C314.454 144.661 312.985 139.666 311.517 134.7C309.878 129.158 308.648 123.503 307.806 117.785C306.84 111.229 306.428 104.596 306.331 97.9746C306.289 95.1453 301.888 95.1373 301.93 97.9746H301.929Z" fill="#211715"/>
<path d="M289.741 117.756C289.376 119.491 288.856 121.19 288.263 122.86C288.042 123.484 287.795 124.169 287.55 124.747C287.423 125.047 287.279 125.34 287.153 125.641C287.137 125.678 286.814 126.478 286.97 126.1C287.107 125.769 286.895 126.267 286.85 126.363C286.769 126.536 286.689 126.709 286.606 126.881C286.415 127.276 286.214 127.667 286.009 128.055C285.484 129.046 284.921 130.016 284.333 130.97C281.353 135.809 277.732 140.369 273.317 143.978C270.885 145.966 268.09 147.57 265.012 148.272C262.251 148.902 263.42 153.146 266.182 152.516C272.473 151.081 277.724 146.518 281.849 141.761C285.273 137.813 288.474 133.361 290.65 128.586C290.73 128.411 290.806 128.234 290.882 128.057C290.824 128.192 291.341 126.969 291.199 127.297C291.071 127.593 291.231 127.241 291.249 127.201C291.358 126.955 291.463 126.706 291.567 126.458C291.765 125.987 291.957 125.513 292.139 125.035C292.893 123.048 293.547 121.01 293.985 118.929C294.568 116.166 290.326 114.985 289.742 117.758L289.741 117.756Z" fill="#211715"/>
<path d="M207.785 118.459C209.625 126.717 213.466 134.445 218.962 140.877C224.289 147.111 231.149 152.064 239.4 153.323C240.573 153.502 241.765 153.027 242.106 151.785C242.392 150.744 241.751 149.259 240.569 149.079C232.973 147.92 226.975 143.504 222.072 137.766C217.065 131.907 213.7 124.793 212.027 117.289C211.411 114.526 207.169 115.696 207.785 118.459Z" fill="#211715"/>
<path d="M280.288 39.3837C281.935 40.3658 283.312 41.5529 284.666 42.9041C286.22 44.4532 287.846 45.9484 289.297 47.5965C292.102 50.7838 294.298 54.4992 296.097 58.3336C299.667 65.9453 301.198 74.0341 301.652 82.3719C301.935 87.5664 302.093 92.7759 301.933 97.9764C301.846 100.809 306.247 100.806 306.334 97.9764C306.483 93.119 306.352 88.2555 306.106 83.404C305.899 79.3046 305.619 75.2212 304.838 71.1838C303.061 61.9869 299.276 52.883 293.338 45.5863C291.721 43.5981 289.842 41.862 288.035 40.0518C286.343 38.3566 284.572 36.8165 282.507 35.5854C280.069 34.1312 277.854 37.9346 280.286 39.3847L280.288 39.3837Z" fill="#211715"/>
<path d="M274.717 31.76C266.321 28.3767 257.295 26.7795 248.236 27.1915C238.987 27.6126 229.899 30.4759 221.839 34.9793C215.84 38.3296 210.619 42.621 206.551 48.1746C202.29 53.9922 199.413 60.8028 197.511 67.7295C194.754 77.7665 193.969 88.3015 194.295 98.6745C194.384 101.5 198.784 101.512 198.695 98.6745C198.202 83.018 200.122 66.1033 208.8 52.651C212.088 47.5545 216.399 43.4841 221.533 40.2728C228.587 35.8614 236.699 32.7671 244.993 31.846C254.72 30.7659 264.507 32.3601 273.548 36.0014C274.65 36.4454 275.965 35.5174 276.254 34.4643C276.599 33.2081 275.824 32.204 274.717 31.758V31.76Z" fill="#211715"/>
<path d="M211.278 94.7984C208.547 92.3301 204.603 91.7441 201.251 93.2882C198.753 94.4393 197.279 96.7966 196.608 99.3908C195.054 105.396 196.57 112.337 200.008 117.448C202.301 120.854 205.885 123.906 210.265 123.344C211.444 123.193 212.466 122.441 212.466 121.144C212.466 120.073 211.453 118.792 210.265 118.944C206.764 119.393 204.383 116.481 202.877 113.676C201.65 111.391 200.72 108.764 200.503 106.17C200.288 103.609 200.302 100.453 201.851 98.2597C201.61 98.6017 202.055 98.0337 202.125 97.9627C202.241 97.8447 202.519 97.6076 202.563 97.5766C203.017 97.2536 203.526 97.0636 204.067 96.9456C205.513 96.6295 207.052 96.9036 208.166 97.9107C210.262 99.8059 213.384 96.7026 211.278 94.7984Z" fill="#211715"/>
<path d="M293.891 98.2315C294.916 97.3194 296.299 97.0314 297.638 97.2384C298.3 97.3404 298.954 97.5645 299.498 97.9625C299.554 98.0035 300.274 98.7396 300.084 98.4965C301.726 100.6 301.703 103.881 301.492 106.396C301.274 109.004 300.35 111.613 299.118 113.912C297.828 116.321 295.356 119.773 292.182 119.341C291.006 119.181 289.82 119.624 289.476 120.878C289.194 121.904 289.828 123.423 291.013 123.584C298.58 124.615 303.01 117.324 305.027 111.07C306.044 107.917 306.193 104.44 305.692 101.181C305.275 98.4645 304.15 95.8433 301.83 94.2431C298.466 91.9219 293.755 92.474 290.779 95.1222C288.659 97.0084 291.78 100.112 293.891 98.2335V98.2315Z" fill="#211715"/>
<path d="M282.357 167.261C289.07 167.953 295.804 170.033 302.005 172.65C307.733 175.067 313.191 178.025 317.691 182.372C326.057 190.455 330.036 201.56 332.149 212.762C333.372 219.243 334.003 225.814 334.593 232.378C334.699 233.561 335.528 234.578 336.793 234.578C337.901 234.578 339.1 233.568 338.993 232.378C337.89 220.102 336.691 207.483 331.904 195.997C329.517 190.271 326.285 184.936 321.979 180.441C317.402 175.661 311.862 172.269 305.865 169.568C298.436 166.22 290.485 163.699 282.357 162.861C281.173 162.739 280.157 163.96 280.157 165.061C280.157 166.352 281.17 167.139 282.357 167.261Z" fill="#211715"/>
<path d="M302.223 206.83C302.058 215.399 301.603 223.958 301.049 232.51C300.866 235.337 305.266 235.326 305.449 232.51C306.004 223.958 306.459 215.399 306.624 206.83C306.679 203.998 302.278 203.998 302.223 206.83Z" fill="#211715"/>
<path d="M268.467 149.544C268.48 152.01 268.428 154.667 269.079 157.058C269.816 159.765 271.528 161.831 273.787 163.416C277.312 165.888 281.615 167.066 285.588 168.619L285.062 164.598C277.2 169.127 268.45 171.674 259.454 172.747C250.104 173.863 240.735 172.853 231.688 170.281C227.034 168.958 222.253 167.235 218.237 164.475L217.711 168.496C221.746 166.915 226.101 165.681 229.613 163.063C231.695 161.511 233.274 159.408 233.893 156.846C234.46 154.499 234.435 151.951 234.448 149.545C234.463 146.713 230.063 146.71 230.048 149.545C230.038 151.426 230.074 153.389 229.742 155.243C229.368 157.326 228.15 158.813 226.419 159.946C223.408 161.917 219.869 162.949 216.542 164.253C214.749 164.955 214.379 167.15 216.016 168.274C219.824 170.891 224.366 172.628 228.752 173.999C233.516 175.488 238.423 176.456 243.371 177.079C248.199 177.687 252.948 177.812 257.791 177.329C262.799 176.83 267.782 175.948 272.629 174.584C277.782 173.134 282.647 171.066 287.282 168.397C289.055 167.376 288.437 165.033 286.755 164.376C283.48 163.096 280.003 162.102 276.987 160.258C275.255 159.2 273.869 157.906 273.319 155.889C272.773 153.884 272.875 151.613 272.864 149.544C272.849 146.714 268.449 146.708 268.464 149.544H268.467Z" fill="#211715"/>
<path d="M223.742 187.657C224.393 188.266 224.865 188.998 224.97 189.906C225.006 190.219 224.887 190.599 224.926 190.885C224.94 190.989 224.696 191.248 224.706 191.264C225.284 191.023 225.642 191.255 225.78 191.962C225.508 192.752 225.13 192.982 224.645 192.653C224.535 192.353 224.534 192.383 224.642 192.743C224.688 192.979 224.715 193.217 224.722 193.457C224.815 194.657 224.725 195.885 224.561 197.074C224.504 197.492 224.397 197.891 224.318 198.302C224.325 198.267 224.311 197.786 224.183 198.294C224.228 198.25 224.282 198.238 224.346 198.258C225.092 198.362 224.938 198.994 223.884 200.157C223.901 200.289 224.041 200.597 224.064 200.719C224.214 201.501 224.179 202.396 224.055 203.182C223.967 203.736 223.81 204.312 223.6 204.831C223.51 205.052 223.408 205.266 223.292 205.475C223.042 205.857 223.063 205.872 223.354 205.52H224.524C224.846 205.852 224.926 205.902 224.762 205.669C224.635 205.454 224.65 205.507 224.806 205.828L224.506 206.938C224.316 207.374 223.479 206.886 223.319 207.16C223.28 207.226 223.387 207.359 223.377 207.425C223.281 208.109 223.367 208.679 223.163 209.373C222.802 210.598 222.113 211.761 221.321 212.757C220.582 213.686 220.414 214.961 221.321 215.868C222.088 216.635 223.69 216.803 224.433 215.868C226.532 213.23 228.312 209.944 227.65 206.455C227.364 204.949 226.388 203.477 224.879 202.986C223.272 202.463 221.456 203.216 220.706 204.717C219.967 206.196 220.677 207.928 221.835 208.974C223.398 210.387 225.558 209.892 226.72 208.27C228.441 205.869 229.065 202.056 228.223 199.216C227.757 197.643 226.64 196.301 224.99 195.947C223.112 195.544 221.334 196.786 220.96 198.641C220.257 202.13 224.344 203.555 226.835 201.822C228.03 200.991 228.551 199.843 228.779 198.436C229.1 196.462 229.271 194.472 229.022 192.482C228.828 190.929 228.187 189.566 226.74 188.823C225.102 187.982 222.939 188.415 221.927 190.008C220.908 191.613 221.383 193.849 222.96 194.896C224.536 195.943 226.523 195.674 227.844 194.352C230.558 191.635 229.393 186.92 226.855 184.543C224.789 182.609 221.671 185.714 223.744 187.654L223.742 187.657Z" fill="#211715"/>
<path d="M182.87 125.428C183.334 126.519 185.67 131.285 186.567 132.494C190.125 130.551 194.035 129.143 198.148 128.012C199.205 127.721 200.924 127.416 201.967 127.754C202.134 127.808 202.291 127.87 202.448 127.933L202.999 127.614L205.255 125.914C207.886 123.475 208.883 121.974 209.095 120.574C209.477 118.059 209.173 117.078 208.072 114.713C206.994 112.398 205 109.277 203.754 107.155C203.206 106.221 202.649 105.276 201.905 104.528C200.968 103.586 199.789 103.013 198.601 102.605C194.015 101.028 188.882 101.808 185.248 104.939C181.614 108.071 179.672 113.561 180.618 118.799C181.034 121.103 181.957 123.28 182.871 125.429L182.87 125.428Z" fill="white"/>
<path d="M238.553 168.613C238.165 167.633 237.521 166.744 236.885 165.869C235.437 163.878 233.296 160.861 231.648 159.087C229.872 157.175 229.142 156.567 226.684 155.912C225.316 155.547 223.576 155.558 220.288 156.994L218.062 158.123L215.337 159.625C215.368 159.741 215.392 159.853 215.409 159.956C215.891 162.849 214.605 164.35 212.385 165.79C210.34 167.115 208.621 168.058 206.744 168.992L207.219 170.448C207.738 172.389 210.733 176.975 211.585 177.875C213.189 179.572 214.788 181.101 216.734 182.404C221.157 185.365 227.199 185.801 231.522 183.721C235.844 181.641 238.611 177.247 238.998 172.413C239.098 171.161 239.045 169.851 238.555 168.615L238.553 168.613Z" fill="white"/>
<path d="M213.764 149.715C213.152 148.445 212.002 147.648 210.519 147.224C210.351 147.176 210.166 147.145 209.969 147.134L210.521 145.264C211.013 143.596 211.205 141.782 210.669 140.127C210.133 138.472 208.836 137.474 207.092 136.974C206.456 136.792 205.582 136.853 204.76 137.003L205.105 136.158C205.655 134.508 205.91 132.702 205.432 131.029C204.954 129.357 203.693 128.315 201.967 127.753C200.924 127.414 199.205 127.72 198.148 128.012C193.328 129.338 188.782 131.037 184.76 133.541C181.844 135.356 179.203 137.595 176.933 140.422C174.635 143.283 174.341 149.95 175.336 152.972C177.68 160.091 180.024 167.209 182.37 174.328C179.11 179.687 179.098 179.707 177.462 182.398C177.016 183.132 176.554 183.919 176.571 184.778C176.592 185.82 177.307 186.704 178.01 187.473C180.963 190.698 184.383 193.494 188.129 195.747C188.899 196.21 189.687 196.652 190.529 196.967C192.669 197.767 195.098 197.692 197.235 196.885C197.883 196.64 198.511 196.328 199.053 195.897C200.445 194.79 201.14 192.988 201.29 191.216C201.452 189.294 201.047 187.372 200.692 185.484C203.02 185.566 204.723 183.609 205.24 181.498C205.672 179.735 205.408 177.876 204.996 176.108C204.554 174.21 203.943 172.339 203.838 170.39C207.033 168.885 209.345 167.761 212.382 165.792C214.603 164.352 215.889 162.851 215.407 159.958C215.263 159.092 214.666 157.627 213.129 157.195C214.047 155.142 214.726 152.558 213.99 150.285C213.925 150.086 213.85 149.897 213.763 149.717L213.764 149.715Z" fill="white"/>
<path d="M183.65 131.641C180.324 133.74 176.927 136.422 174.726 139.734C173.026 142.292 172.59 145.794 172.596 148.795C172.604 152.467 173.941 155.761 175.075 159.205C176.573 163.754 178.072 168.305 179.57 172.854C180.453 175.531 184.703 174.385 183.814 171.684C182.471 167.604 181.127 163.525 179.783 159.446L177.768 153.327C177.358 152.083 177.083 151.018 177.02 149.751C176.898 147.282 177.067 144.351 178.381 142.183C179.205 140.823 180.526 139.634 181.693 138.573C182.99 137.395 184.39 136.373 185.87 135.439C188.259 133.932 186.053 130.123 183.649 131.64L183.65 131.641Z" fill="#211715"/>
<path d="M207.226 136.742C208.108 133.969 208.291 130.653 206.432 128.227C204.806 126.106 202.191 125.172 199.585 125.506C196.857 125.856 194.147 126.844 191.584 127.815C188.832 128.858 186.157 130.097 183.65 131.641C181.242 133.123 183.45 136.93 185.871 135.44C189.75 133.052 193.996 131.451 198.372 130.233C199.879 129.813 201.377 129.471 202.626 130.532C203.948 131.653 203.486 133.991 202.983 135.572C202.123 138.277 206.37 139.434 207.227 136.742H207.226Z" fill="#211715"/>
<path d="M212.642 145.848C213.45 142.961 213.525 139.57 211.474 137.166C209.615 134.988 206.838 134.393 204.124 134.888C201.46 135.375 198.814 136.531 196.329 137.576C193.545 138.746 190.835 140.079 188.316 141.753C187.327 142.41 186.903 143.696 187.527 144.763C188.101 145.745 189.543 146.213 190.537 145.552C194.419 142.974 198.747 141.141 203.167 139.708C204.785 139.184 206.361 138.629 207.766 139.674C209.257 140.783 208.833 143.128 208.399 144.677C207.634 147.408 211.878 148.574 212.642 145.847V145.848Z" fill="#211715"/>
<path d="M215.969 155.854C216.764 153.026 216.812 149.761 214.842 147.392C213.137 145.341 210.483 144.679 207.94 145.085C205.504 145.474 203.054 146.46 200.77 147.369C198.293 148.355 195.926 149.527 193.705 151.004C192.717 151.661 192.291 152.947 192.916 154.015C193.49 154.996 194.932 155.465 195.926 154.804C199.424 152.477 203.251 151.015 207.243 149.775C208.829 149.282 210.1 149.024 211.262 149.985C211.436 150.129 211.589 150.317 211.729 150.569C211.817 150.729 211.992 151.193 212.052 151.554C212.229 152.606 212.009 153.673 211.725 154.682C210.957 157.412 215.202 158.578 215.968 155.852L215.969 155.854Z" fill="#211715"/>
<path d="M201.667 170.787C201.813 172.256 202.117 173.678 202.481 175.105C202.809 176.392 203.174 177.726 203.244 178.94C203.278 179.533 203.277 180.199 203.18 180.647C203.116 180.944 203.033 181.229 202.938 181.516C202.846 181.76 202.838 181.78 202.915 181.576C202.87 181.672 202.821 181.766 202.769 181.858C202.651 182.073 202.524 182.288 202.375 182.483C202.613 182.172 202.081 182.761 202.026 182.818C201.83 182.985 201.818 183 201.988 182.862C201.875 182.941 201.759 183.013 201.639 183.081C201.407 183.195 201.396 183.208 201.605 183.121C201.475 183.17 201.343 183.212 201.208 183.246C200.066 183.573 199.354 184.798 199.671 185.952C199.984 187.092 201.231 187.817 202.378 187.489C205.615 186.562 207.371 183.491 207.633 180.295C207.901 177.035 206.369 173.814 206.067 170.787C205.953 169.645 205.137 168.53 203.867 168.587C202.773 168.636 201.544 169.561 201.667 170.787Z" fill="#211715"/>
<path d="M178.114 177.089C177.053 178.834 175.791 180.571 174.943 182.43C173.864 184.793 174.583 186.858 176.192 188.734C179.118 192.147 182.826 195.072 186.646 197.418C188.632 198.638 190.68 199.543 193.028 199.704C195.323 199.861 197.891 199.309 199.829 198.041C204.157 195.208 203.736 189.776 202.897 185.336C202.676 184.168 201.269 183.503 200.191 183.799C198.967 184.135 198.433 185.334 198.654 186.505C199.166 189.218 199.933 193.307 196.77 194.708C193.46 196.174 190.544 194.737 187.76 192.915C184.976 191.092 182.448 188.955 180.163 186.554C179.791 186.163 178.975 185.51 178.828 184.943C178.665 184.317 179.291 183.625 179.602 183.111C180.371 181.843 181.144 180.575 181.915 179.307C183.391 176.881 179.587 174.668 178.116 177.086L178.114 177.089Z" fill="#211715"/>
<path d="M206.398 171.602C208.978 170.364 211.552 169.045 213.908 167.412C216.069 165.914 217.658 163.933 217.708 161.198C217.755 158.636 216.541 156.106 214.035 155.178C212.209 154.502 209.847 154.841 208.006 155.276C205.133 155.956 202.424 157.358 199.903 158.858C198.883 159.465 198.511 160.837 199.114 161.869C199.712 162.891 201.099 163.268 202.124 162.658C203.222 162.005 204.339 161.384 205.494 160.835C205.729 160.723 205.965 160.615 206.203 160.51C206.301 160.466 206.4 160.423 206.499 160.381C206.166 160.522 206.491 160.387 206.55 160.364C207.002 160.192 207.453 160.02 207.914 159.872C208.716 159.615 209.524 159.446 210.35 159.292C210.602 159.245 210.137 159.33 210.139 159.32C210.141 159.311 210.393 159.292 210.432 159.289C210.599 159.273 210.766 159.261 210.933 159.252C211.276 159.234 211.619 159.23 211.962 159.243C212.136 159.249 212.316 159.253 212.489 159.274C211.997 159.214 212.898 159.431 212.599 159.314C212.336 159.212 213.101 159.705 212.637 159.302C212.791 159.436 213.104 159.84 212.838 159.446C212.938 159.594 213.025 159.746 213.115 159.9C213.376 160.348 213.067 159.63 213.14 159.958C213.171 160.096 213.216 160.241 213.255 160.377C213.268 160.421 213.309 160.661 213.278 160.466C213.242 160.242 213.302 160.809 213.302 160.804C213.312 161.023 213.268 161.268 213.296 161.481C213.327 161.713 213.313 161.402 213.324 161.346C213.302 161.46 213.283 161.574 213.255 161.687C213.233 161.777 213.04 162.337 213.154 162.058C213.255 161.81 212.99 162.335 212.925 162.448C212.665 162.897 213.079 162.333 212.821 162.6C212.681 162.745 212.549 162.895 212.403 163.033C212.251 163.178 212.091 163.312 211.93 163.447C212.281 163.154 211.624 163.66 211.526 163.725C209.2 165.293 206.705 166.592 204.178 167.803C203.107 168.317 202.824 169.847 203.389 170.813C204.03 171.909 205.325 172.119 206.4 171.603L206.398 171.602Z" fill="#211715"/>
<path d="M188.162 130.812C188.635 131.39 188.059 130.613 187.964 130.456C187.753 130.108 187.555 129.752 187.36 129.395C186.894 128.543 186.45 127.678 186.016 126.81C185.153 125.084 184.35 123.341 183.682 121.528C181.914 116.724 182.062 111.181 185.687 107.223C188.913 103.702 194.519 102.682 198.819 104.808C201.04 105.906 202.058 108.459 203.278 110.488C204.541 112.586 206.015 114.777 206.746 117.134C207.938 120.978 204.59 123.342 201.81 125.435C200.862 126.149 200.371 127.335 201.021 128.445C201.567 129.38 203.077 129.954 204.032 129.234C207.705 126.468 211.478 123.42 211.375 118.399C211.315 115.501 209.718 112.791 208.308 110.344C207.532 108.997 206.714 107.674 205.917 106.339C205.095 104.96 204.301 103.511 203.096 102.421C198.453 98.2225 190.292 98.4905 185.288 101.826C179.823 105.468 177.329 112.334 178.353 118.709C178.862 121.878 180.218 124.921 181.609 127.796C182.612 129.871 183.583 132.127 185.05 133.922C185.803 134.843 187.38 134.703 188.161 133.922C189.071 133.012 188.915 131.734 188.161 130.811L188.162 130.812Z" fill="#211715"/>
<path d="M205.097 171.033C205.758 173.286 207.142 175.399 208.448 177.328C210.013 179.64 212.012 181.587 214.223 183.284C219.212 187.115 226.1 188.444 231.987 185.906C237.657 183.46 241.419 177.307 241.235 171.146C241.13 167.626 239.066 165.115 237.072 162.406C235.403 160.137 233.707 157.702 231.527 155.884C229.348 154.066 226.423 153.235 223.621 153.659C221.226 154.022 219.083 155.145 216.951 156.226C214.425 157.507 216.649 161.305 219.172 160.026C220.509 159.348 221.792 158.66 223.242 158.241C224.109 157.989 224.79 157.854 225.68 157.937C225.287 157.901 226.356 158.107 226.473 158.141C226.9 158.264 227.326 158.391 227.725 158.588C229.542 159.488 230.978 161.591 232.201 163.191C232.946 164.167 233.666 165.162 234.386 166.155C235.144 167.201 236.081 168.267 236.538 169.489C237.332 171.612 236.654 174.438 235.719 176.415C234.738 178.488 233.216 180.245 231.22 181.392C226.96 183.841 221.387 182.98 217.482 180.258C216.233 179.387 215.113 178.336 214.044 177.256C213.657 176.865 213.263 176.475 212.91 176.053C212.686 175.785 213.247 176.519 212.834 175.947C212.688 175.745 212.544 175.541 212.402 175.335C211.257 173.672 209.841 171.575 209.339 169.864C208.544 167.152 204.296 168.306 205.096 171.034L205.097 171.033Z" fill="#211715"/>
<path d="M64.3851 98.5233C61.0788 94.5659 59.1366 90.3155 58.0245 86.7242C56.5584 87.0652 54.9902 86.5152 53.9421 85.6571C52.992 84.88 52.2659 83.9819 51.6909 83.0698C51.2869 83.7999 50.5628 84.646 49.3447 85.7761L47.7285 86.9932C47.7285 86.9932 47.5405 87.1342 47.2275 87.3702C47.2145 87.3652 47.2015 87.3592 47.1895 87.3542C48.3466 87.7663 49.1986 88.4904 49.5267 89.6385C49.8687 90.8366 49.6867 92.1297 49.2927 93.3118C49.2927 93.3118 49.2397 93.5528 49.1636 93.8979C49.7167 93.8049 50.2908 93.7749 50.7158 93.8979C51.9649 94.2559 52.894 94.97 53.277 96.1551C53.6611 97.3402 53.5241 98.6393 53.171 99.8345C53.171 99.8345 52.999 100.45 52.796 101.172C52.929 101.184 53.055 101.206 53.17 101.238C54.3822 101.585 55.2832 102.278 55.6563 103.428C56.0293 104.578 55.8953 105.839 55.5533 106.998C55.5533 106.998 55.3822 107.661 55.1882 108.421C56.0213 108.724 56.4284 109.464 56.5964 110.044C57.7755 109.447 58.5706 109.043 58.5706 109.043L60.1647 108.235C62.5189 107.206 63.7651 107.199 64.7452 107.46C66.5053 107.929 67.0284 108.365 68.2995 109.733C68.7065 110.171 69.1566 110.719 69.6126 111.302C70.3877 110.336 71.1698 109.368 71.8669 108.587C71.9919 108.688 72.6459 109.206 73.601 109.96C73.606 108.271 73.604 106.709 73.619 106.047C70.2397 104.425 67.1184 101.799 64.3821 98.5233H64.3851Z" fill="#211715"/>
<path d="M126.462 95.8773C123.962 87.4315 122.958 78.8526 122.84 70.0588C123.006 64.9823 122.652 58.9637 122.472 56.4435C121.846 47.7076 117.912 37.9526 112.254 32.5301C110.001 30.3709 109.22 29.2728 107.029 27.9907C107.029 27.9907 105.761 27.2486 104.494 26.5065L101.976 25.4854C97.2955 23.5882 92.419 22.3281 85.4933 22.3281C74.1382 22.3281 64.0322 28.1777 59.5478 32.4711C52.1081 39.5938 47.3886 52.6041 47.9847 70.5448C47.9847 70.9939 47.9807 71.4279 47.9777 71.867C48.0737 72.026 48.1757 72.181 48.2687 72.34C48.5707 72.8551 48.9358 73.4541 49.3148 74.0822C49.3978 72.621 49.6938 71.2219 50.2759 70.2118C50.7079 69.4627 51.711 68.1876 54.0683 68.1046C54.6743 68.0836 55.3384 68.1796 55.9695 68.4276C62.2591 66.4544 70.4149 64.2302 77.8186 60.7129C89.8317 55.0063 93.4431 52.6731 100.092 47.1245C103.543 55.3953 109.454 63.7542 115.517 68.6346C116.272 68.2326 117.11 68.0786 117.86 68.1046C120.218 68.1876 121.221 69.4627 121.653 70.2118C122.941 72.447 122.887 76.5644 122.022 79.1127C121.41 80.9168 120.406 83.6771 117.986 85.6573C116.989 86.4734 115.522 87.0104 114.12 86.7734C114.12 86.7734 114.025 86.7574 113.853 86.7284C113.395 88.0645 112.822 89.2526 112.629 89.8387C111.631 92.547 106.004 102.214 98.9566 105.621C98.9666 106.368 98.9636 107.913 98.9656 109.566C99.6447 109.03 100.1 108.669 100.202 108.586C101.55 110.094 103.212 112.304 104.531 113.831C104.84 114.188 105.112 114.666 105.305 115.185C105.743 114.999 106.267 115.021 106.706 115.329C108.337 116.473 110.199 117.905 111.899 119.426L113.567 119.421C119.524 121.542 126.381 117.887 128.293 111.949C129.861 107.083 127.913 100.777 126.462 95.8753V95.8773Z" fill="#211715"/>
<path d="M121.654 70.2127C121.221 69.4637 120.218 68.1885 117.861 68.1055C117.11 68.0795 116.272 68.2335 115.518 68.6356C109.454 63.7561 103.544 55.3963 100.092 47.1255C93.4438 52.674 89.8334 55.0073 77.8193 60.7138C70.4156 64.2312 62.2608 66.4554 55.9701 68.4286C55.3391 68.1805 54.675 68.0835 54.069 68.1055C51.7117 68.1885 50.7086 69.4637 50.2766 70.2127C48.9885 72.448 49.0425 76.5654 49.9076 79.1136C50.5206 80.9178 51.5237 83.6781 53.9429 85.6582C54.9911 86.5163 56.5602 87.0664 58.0253 86.7253C59.1365 90.3167 61.0786 94.5671 64.386 98.5245C67.1222 101.8 70.2425 104.426 73.6229 106.048C73.5889 107.54 73.6409 108.019 73.5079 109.817C73.5059 109.838 73.5039 109.86 73.5029 109.881C76.8782 112.546 84.3089 118.392 85.008 118.888H87.0652C87.7992 118.368 95.95 111.952 99.0413 109.509C98.9343 107.823 98.9813 107.358 98.9583 105.623C106.006 102.216 111.633 92.5489 112.631 89.8406C112.824 89.2536 113.397 88.0655 113.855 86.7303C114.027 86.7593 114.122 86.7753 114.122 86.7753C115.525 87.0124 116.992 86.4753 117.988 85.6592C120.407 83.68 121.411 80.9198 122.024 79.1146C122.889 76.5664 122.943 72.449 121.655 70.2137L121.654 70.2127Z" fill="white"/>
<path d="M80.3685 93.6919C82.2077 94.663 84.1858 95.0811 86.267 95.0681C88.4523 95.0541 90.5855 94.592 92.3266 93.2359C93.1557 92.5898 93.0557 91.0767 92.3266 90.4076C91.4465 89.6005 90.3824 89.7186 89.4984 90.4076C90.1884 89.8706 89.4634 90.4026 89.2443 90.5166C89.0753 90.6056 88.6193 90.7467 89.2443 90.5356C89.0833 90.5896 88.9263 90.6576 88.7643 90.7097C88.5603 90.7757 88.3523 90.8317 88.1432 90.8797C87.9212 90.9307 87.6282 90.9287 87.4212 91.0157C87.6262 90.9297 87.7382 90.9777 87.4362 91.0077C87.3041 91.0207 87.1721 91.0317 87.0401 91.0407C86.7221 91.0617 86.4041 91.0697 86.085 91.0677C85.8 91.0657 85.515 91.0567 85.2299 91.0367C85.0989 91.0277 84.9689 91.0177 84.8379 91.0047C84.7639 90.9977 84.6889 90.9887 84.6149 90.9797C84.4579 90.9607 84.5169 90.9687 84.7919 91.0027C84.6879 91.0587 84.2678 90.9097 84.1488 90.8827C83.9428 90.8367 83.7388 90.7847 83.5368 90.7237C83.3608 90.6706 83.1897 90.6076 83.0157 90.5486C82.5637 90.3936 83.4318 90.7487 83.0217 90.5546C82.8067 90.4536 82.5947 90.3476 82.3837 90.2366C81.4586 89.7486 80.1665 89.9716 79.6474 90.9547C79.1594 91.8788 79.3774 93.1699 80.3655 93.6909L80.3685 93.6919Z" fill="#211715"/>
<path d="M85.0062 80.1135C85.2512 81.0485 85.4872 81.9995 85.6272 82.9565L85.5561 82.4245C85.5731 82.5555 85.5802 82.6855 85.5672 82.8165L85.6381 82.2845C85.6292 82.3455 85.6152 82.4025 85.5952 82.4605L85.7972 81.9825C85.7792 82.0235 85.7602 82.0585 85.7352 82.0965L86.0482 81.6915C86.0192 81.7275 85.9912 81.7545 85.9552 81.7835L86.3602 81.4705C86.2882 81.5165 86.2122 81.5535 86.1352 81.5895L86.6132 81.3875C86.4892 81.4395 86.3662 81.4775 86.2332 81.4985L86.7652 81.4275C86.6452 81.4415 86.5282 81.4405 86.4092 81.4275L86.9412 81.4985C86.8072 81.4795 86.6752 81.4475 86.5402 81.4295C86.2742 81.3465 86.0082 81.3345 85.7422 81.3935C85.4762 81.4055 85.2282 81.4845 84.9982 81.6305C84.5832 81.8735 84.1872 82.3485 84.0792 82.8255C83.9622 83.3375 83.9882 83.9125 84.2812 84.3665C84.5412 84.7695 84.9762 85.2185 85.4762 85.2855C85.8302 85.3335 86.1732 85.4215 86.5342 85.4375C87.1122 85.4625 87.6402 85.2815 88.1542 85.0435C88.8002 84.7445 89.3092 84.1325 89.4802 83.4385C89.6272 82.8445 89.5672 82.3665 89.4662 81.7705C89.3112 80.8545 89.1002 79.9465 88.8642 79.0485C88.7372 78.5655 88.3741 78.1045 87.9451 77.8535C87.5161 77.6025 86.8842 77.4965 86.4042 77.6515C85.9202 77.8085 85.4531 78.1085 85.2091 78.5705C84.9561 79.0505 84.8672 79.5775 85.0072 80.1115L85.0062 80.1135Z" fill="#211715"/>
<path d="M70.4946 71.9167C70.0196 73.4597 70.3296 77.0087 73.2526 77.3107C77.1156 77.2877 77.3216 72.9967 76.0206 70.9787C74.9556 69.3267 71.8246 68.6397 70.4946 71.9167Z" fill="#211715"/>
<path d="M101.434 71.9167C101.909 73.4597 101.6 77.0087 98.6769 77.3107C94.8139 77.2877 94.6079 72.9967 95.9079 70.9787C96.9729 69.3267 100.104 68.6397 101.434 71.9167Z" fill="#211715"/>
<path d="M67.8952 118.944C70.3794 117.917 73.0487 116.625 74.3918 114.16C75.5889 111.961 75.5909 109.405 75.6079 106.961C75.6159 105.915 74.6828 104.913 73.6077 104.961C72.5176 105.01 71.6155 105.84 71.6075 106.961C71.6015 107.789 71.5865 108.615 71.5325 109.443C71.5125 109.738 71.4915 110.034 71.4645 110.329C71.4595 110.381 71.4125 110.86 71.4435 110.584C71.4745 110.313 71.3985 110.839 71.3985 110.839C71.3475 111.098 71.2815 111.353 71.1935 111.602C71.1235 111.799 71.0615 111.903 71.1815 111.65C71.1255 111.769 71.0705 111.888 71.0105 112.004C70.9035 112.211 70.7875 112.414 70.6575 112.608C70.6235 112.659 70.3514 112.987 70.5394 112.78C70.7335 112.566 70.3944 112.928 70.3904 112.932C70.3174 113.008 70.2424 113.082 70.1654 113.154C70.1694 113.15 69.8034 113.467 69.9844 113.318C70.1724 113.163 69.8034 113.451 69.7654 113.478C69.6494 113.561 69.5313 113.642 69.4123 113.721C68.9713 114.015 68.5122 114.281 68.0402 114.523C67.7932 114.65 67.5431 114.77 67.2901 114.886C67.1881 114.933 67.0851 114.978 66.9831 115.023C66.467 115.254 67.3611 114.869 66.8321 115.088C65.869 115.486 65.0739 116.433 65.4349 117.548C65.735 118.475 66.8601 119.373 67.8952 118.944Z" fill="#211715"/>
<path d="M96.9654 106.961C96.9654 109.245 96.9884 111.609 97.9535 113.716C98.9916 115.984 101.177 117.389 103.373 118.39C104.323 118.824 105.57 118.693 106.109 117.672C106.573 116.794 106.408 115.399 105.391 114.936C104.457 114.511 103.554 114.026 102.723 113.421C102.595 113.328 102.433 113.181 102.644 113.364C102.547 113.281 102.45 113.199 102.357 113.111C102.211 112.973 101.989 112.798 101.901 112.618C102.004 112.828 102.047 112.815 101.909 112.606C101.854 112.524 101.802 112.441 101.752 112.356C101.624 112.141 101.522 111.917 101.407 111.696C101.28 111.45 101.518 112.021 101.431 111.755C101.387 111.62 101.332 111.488 101.291 111.351C101.216 111.097 101.173 110.838 101.123 110.578C101.077 110.337 101.149 110.892 101.118 110.501C101.109 110.386 101.097 110.271 101.087 110.156C101.063 109.869 101.044 109.581 101.026 109.293C100.98 108.516 100.965 107.739 100.965 106.96C100.965 105.914 100.045 104.912 98.9646 104.96C97.8844 105.008 96.9644 105.839 96.9644 106.96L96.9654 106.961Z" fill="#211715"/>
<path d="M112.511 83.806C112.292 85.3781 111.711 86.8393 111.103 88.2954C110.936 88.6964 110.778 89.0995 110.624 89.5055C110.518 89.7875 110.825 89.0925 110.573 89.6115C110.507 89.7465 110.446 89.8836 110.38 90.0186C109.469 91.8888 108.347 93.6659 107.143 95.3591C104.366 99.2655 100.574 103.513 95.72 104.653C93.2148 105.241 94.2749 109.099 96.7831 108.51C102.522 107.162 106.942 102.396 110.284 97.8123C111.598 96.0122 112.815 94.112 113.799 92.1098C114.896 89.8776 116.025 87.3273 116.368 84.8691C116.517 83.801 116.108 82.7209 114.971 82.4088C114.035 82.1518 112.661 82.7289 112.511 83.806Z" fill="#211715"/>
<path d="M55.4224 84.7552C56.7715 90.5278 59.4928 95.9173 63.3682 100.406C67.2435 104.894 72.4191 108.707 78.4076 109.621C79.4737 109.784 80.5578 109.352 80.8679 108.223C81.1279 107.277 80.5448 105.927 79.4707 105.763C68.8867 104.149 61.563 93.4591 59.2798 83.6921C58.6937 81.1859 54.8353 82.247 55.4224 84.7552Z" fill="#211715"/>
<path d="M58.7717 67.8954C56.6845 66.0332 53.7452 65.5982 51.195 66.7643C49.3668 67.6004 48.2467 69.3275 47.7316 71.2197C46.5465 75.5731 47.6576 80.6626 50.1529 84.376C51.858 86.9122 54.5473 89.1975 57.8096 88.7734C58.8807 88.6344 59.8098 87.9533 59.8098 86.7732C59.8098 85.8001 58.8887 84.633 57.8096 84.773C55.4964 85.0731 53.9782 83.1599 52.9751 81.3097C52.1581 79.8025 51.492 78.0164 51.337 76.2152C51.182 74.414 51.25 72.3328 52.2141 70.8907C51.886 71.3827 52.7341 70.4326 52.4601 70.6366C52.8411 70.3536 53.0281 70.2806 53.4442 70.1876C54.3223 69.9916 55.2544 70.1096 55.9434 70.7237C57.8586 72.4328 60.6979 69.6135 58.7717 67.8954Z" fill="#211715"/>
<path d="M115.986 70.7236C116.634 70.1456 117.519 70.0005 118.352 70.1586C118.84 70.2506 119.057 70.3306 119.469 70.6366C119.192 70.4316 120.037 71.3747 119.715 70.8906C120.679 72.3378 120.748 74.403 120.592 76.2151C120.438 78.0153 119.769 79.8065 118.954 81.3096C117.951 83.1598 116.434 85.073 114.12 84.773C113.047 84.634 112.12 85.7921 112.12 86.7732C112.12 87.9693 113.044 88.6334 114.12 88.7734C119.435 89.4634 122.695 83.7179 124.023 79.4225C125.212 75.5741 125.169 69.5905 121.404 67.1253C118.848 65.4521 115.375 65.9151 113.157 67.8943C111.232 69.6115 114.069 72.4328 115.985 70.7226L115.986 70.7236Z" fill="#211715"/>
<path d="M45.9844 70.545C45.9754 78.8718 45.8914 87.6206 43.7192 95.7224C42.6081 99.8688 41.911 104.262 41.805 108.558C41.72 111.992 43.3012 115.263 45.7234 117.652C49.2147 121.093 53.9542 122.236 58.7137 121.509C59.7828 121.346 60.3728 120.003 60.1108 119.049C59.7968 117.907 58.7227 117.488 57.6506 117.652C54.2842 118.166 50.8549 117.153 48.4487 114.721C46.3235 112.574 45.6844 110.235 45.8564 107.409C46.0914 103.537 46.8405 99.7918 47.7696 96.0385C48.5527 92.8722 48.9717 89.6078 49.2938 86.3665C49.8158 81.111 49.9778 75.8235 49.9838 70.545C49.9868 67.9707 45.9874 67.9667 45.9844 70.545Z" fill="#211715"/>
<path d="M120.841 70.0588C120.975 78.8706 121.992 87.7015 124.467 96.1783C126.291 102.425 129.34 110.935 123.241 115.834C120.652 117.914 117.238 118.553 114.099 117.492C111.655 116.666 110.606 120.529 113.036 121.35C120.046 123.717 127.98 119.455 130.224 112.481C131.553 108.348 130.681 103.735 129.619 99.6477C128.481 95.2722 127.115 91.0008 126.311 86.5404C125.331 81.1009 124.926 75.5793 124.841 70.0578C124.802 67.4855 120.802 67.4795 120.841 70.0588Z" fill="#211715"/>
<path d="M106.02 29.718C107.501 30.6081 108.654 31.7862 109.871 32.9963C111.183 34.3025 112.488 35.5786 113.572 37.0877C115.856 40.268 117.541 43.8524 118.713 47.5807C120.966 54.7454 121.063 62.6102 120.84 70.0599C120.763 72.6352 124.763 72.6322 124.84 70.0599C125.081 61.9952 124.902 53.4573 122.32 45.7436C120.98 41.7422 119.127 37.8508 116.584 34.4695C115.325 32.7963 113.889 31.3592 112.413 29.882C111.057 28.5249 109.692 27.2578 108.038 26.2647C105.826 24.9355 103.813 28.3929 106.019 29.719L106.02 29.718Z" fill="#211715"/>
<path d="M102.508 23.5573C90.4077 18.6948 76.8654 19.4519 65.4503 25.7995C61.2659 28.1268 57.6295 31.099 54.7582 34.9364C51.6979 39.0258 49.6387 43.8553 48.2776 48.7568C46.3164 55.8185 45.7604 63.2422 45.9854 70.5449C46.0644 73.1131 50.0648 73.1241 49.9858 70.5449C49.6537 59.7588 50.9459 48.1257 56.9044 38.8438C62.225 30.557 72.3729 25.4985 82.0009 24.5094C88.6445 23.8273 95.2742 24.9344 101.445 27.4137C102.448 27.8167 103.642 26.9746 103.905 26.0166C104.219 24.8754 103.514 23.9614 102.508 23.5573Z" fill="#211715"/>
<path d="M98.6772 45.7115C93.8867 49.7019 88.8292 53.0002 83.2697 55.8285C79.1593 57.9197 75.0049 59.9399 70.6824 61.5581C66.413 63.1562 62.0486 64.4723 57.6922 65.8045C55.2369 66.5555 56.284 70.4179 58.7553 69.6618C65.888 67.4806 72.9687 65.2414 79.7133 62.0191C84.9058 59.5379 90.1213 56.9986 94.8568 53.7023C97.16 52.0981 99.3502 50.336 101.506 48.5398C103.487 46.8906 100.642 44.0734 98.6772 45.7115Z" fill="#211715"/>
<path d="M113.598 64.1803C108.706 59.1588 104.738 53.0542 102.02 46.5946C101.601 45.5995 100.697 44.8844 99.5594 45.1974C98.6213 45.4554 97.7402 46.6556 98.1622 47.6577C101.16 54.7793 105.364 61.461 110.768 67.0085C112.568 68.8557 115.397 66.0254 113.598 64.1803Z" fill="#211715"/>
<path d="M104.982 118.39C106.963 119.279 108.901 120.253 110.865 121.176C112.993 122.176 115.236 122.955 117.411 123.846C121.386 125.475 125.324 127.227 129.029 129.413C131.251 130.724 133.267 127.266 131.048 125.958C127.295 123.745 123.305 121.988 119.285 120.323C117.162 119.443 114.975 118.676 112.885 117.721C110.911 116.82 108.982 115.824 107.001 114.936C106.016 114.495 104.851 114.651 104.265 115.654C103.765 116.508 103.991 117.947 104.982 118.39Z" fill="#211715"/>
<path d="M59.6664 140.896C59.0873 139.798 58.5112 138.699 57.9402 137.596C57.6582 137.051 57.3761 136.506 57.0961 135.961C56.9571 135.69 56.8181 135.419 56.6791 135.147C56.5601 135.586 56.5911 135.686 56.7711 135.447C57.0631 135.39 57.6692 134.504 57.8862 134.281C58.3352 133.82 58.7913 133.365 59.2513 132.914C60.1664 132.016 61.0985 131.136 62.0326 130.259C62.9667 129.382 62.7207 127.74 61.6275 127.117C59.9074 126.135 58.0802 125.24 56.441 124.128L57.1591 124.846L56.9921 124.588L57.2651 125.597C57.2431 126.106 57.5872 125.215 57.7042 125.036C57.8512 124.81 58.0052 124.585 58.1692 124.371C58.6503 123.743 59.1973 123.16 59.7484 122.594C60.9975 121.312 62.3526 120.134 63.7508 119.016C64.3218 118.559 64.9049 118.119 65.4959 117.688C65.7419 117.509 66.307 117.147 66.281 117.063C66.173 117.076 66.068 117.061 65.966 117.017C65.6509 116.593 65.5969 116.651 65.8039 117.191C65.8159 118.066 66.245 119.073 66.449 119.926C66.706 120.998 66.9671 122.068 67.2321 123.138C69.2603 131.32 71.5245 139.443 74.0138 147.496C74.7718 149.949 78.6342 148.903 77.8711 146.433C75.1959 137.777 72.7786 129.041 70.6384 120.237C70.3974 119.248 70.1614 118.257 69.9273 117.265C69.6813 116.22 69.5423 115.087 68.7992 114.256C67.5401 112.848 65.5749 112.774 64.0688 113.809C61.0455 115.887 58.0402 118.317 55.676 121.135C54.5749 122.447 52.7137 124.522 53.4387 126.368C53.8898 127.516 55.1259 128.011 56.125 128.582C57.2871 129.245 58.4492 129.908 59.6113 130.572L59.2063 127.43C58.0372 128.529 56.8711 129.631 55.738 130.766C54.6559 131.849 53.1917 133.013 52.8077 134.552C52.4397 136.026 53.3117 137.338 53.9588 138.593C54.7039 140.037 55.4569 141.477 56.214 142.915C57.4151 145.193 60.8695 143.174 59.6684 140.896H59.6664Z" fill="#211715"/>
<path d="M116.533 141.634C117.206 140.349 117.875 139.063 118.537 137.772C119.182 136.514 119.692 135.267 119.03 133.891C118.45 132.684 117.271 131.704 116.335 130.766C115.202 129.631 114.037 128.528 112.867 127.431L112.462 130.572C113.419 130.026 114.376 129.48 115.333 128.933C116.213 128.431 117.331 127.992 118.053 127.27C119.537 125.785 118.458 123.871 117.454 122.485C115.331 119.557 112.519 117.207 109.66 115.027C108.266 113.965 106.832 112.678 104.946 113.199C102.804 113.791 102.48 115.853 102.038 117.722C101.016 122.045 99.9224 126.351 98.7673 130.642C97.4622 135.488 96.074 140.313 94.6079 145.112C93.8538 147.58 97.7142 148.635 98.4653 146.175C100.862 138.33 103.049 130.419 105.01 122.452C105.254 121.459 105.495 120.465 105.732 119.47C105.788 119.234 106.506 116.817 106.373 116.737C106.61 116.881 105.698 117.176 105.695 117.058C105.699 117.193 106.587 117.696 106.726 117.798C107.373 118.272 108.008 118.76 108.631 119.265C109.966 120.349 111.264 121.489 112.456 122.73C112.959 123.254 113.459 123.792 113.901 124.369C114.065 124.583 114.218 124.808 114.366 125.034C114.483 125.213 114.827 126.104 114.805 125.595L115.078 124.586L114.911 124.844L115.629 124.126C113.99 125.237 112.163 126.133 110.442 127.116C109.35 127.739 109.1 129.378 110.037 130.257C111.677 131.795 113.298 133.35 114.852 134.974C115.038 135.175 115.227 135.373 115.418 135.568L115.392 135.146C115.299 135.655 114.801 136.299 114.562 136.761C114.071 137.714 113.575 138.664 113.078 139.613C111.885 141.891 115.336 143.915 116.532 141.632L116.533 141.634Z" fill="#211715"/>
<path d="M100.203 108.587C101.551 110.096 103.213 112.306 104.532 113.833C105.308 114.732 105.88 116.383 105.438 117.574C104.931 118.586 99.3296 127.569 95.5563 129.986C94.3642 128.398 89.4267 121.545 87.0645 118.887C87.9495 118.259 99.6297 109.05 100.203 108.587Z" fill="white"/>
<path d="M71.8688 108.587C70.5206 110.096 68.8585 112.306 67.5393 113.833C66.7633 114.732 66.1912 116.383 66.6332 117.574C67.1403 118.586 72.7418 127.569 76.5152 129.986C77.7073 128.398 82.6448 121.545 85.007 118.887C84.1219 118.259 72.4418 109.05 71.8688 108.587Z" fill="white"/>
<path d="M98.7886 110.002C99.7767 111.119 100.699 112.291 101.635 113.452C102.31 114.289 103.353 115.174 103.553 116.282C103.573 116.391 103.612 116.894 103.641 116.685C103.664 116.523 103.641 116.679 103.607 116.758C103.52 116.965 103.369 117.168 103.253 117.36C102.871 117.994 102.471 118.618 102.066 119.236C100.954 120.933 99.7907 122.608 98.5205 124.192C97.8475 125.031 97.1494 125.853 96.4003 126.627C95.7483 127.301 95.0912 127.901 94.5462 128.26L97.2824 128.978C94.3951 125.119 91.6689 121.092 88.4776 117.474L88.0725 120.615C92.717 117.281 97.1644 113.588 101.616 110.002C102.458 109.324 102.322 107.88 101.616 107.174C100.784 106.341 99.6307 106.493 98.7876 107.174C96.6844 108.869 94.5482 110.523 92.424 112.193C90.9848 113.325 89.5447 114.455 88.1005 115.582C87.8335 115.79 87.5675 115.998 87.3005 116.206C87.1604 116.315 86.3284 116.957 86.8374 116.566C86.5774 116.766 86.3204 116.97 86.0533 117.161C84.9672 117.942 84.7382 119.271 85.6483 120.303C88.6146 123.666 91.1428 127.41 93.8271 130.997C94.4471 131.825 95.5793 132.364 96.5634 131.715C98.5505 130.405 100.136 128.561 101.598 126.706C103.112 124.786 104.531 122.793 105.855 120.737C106.986 118.98 107.947 117.442 107.408 115.22C107.012 113.591 105.928 112.43 104.901 111.168C103.812 109.831 102.757 108.467 101.615 107.175C99.9067 105.241 97.0854 108.08 98.7866 110.003L98.7886 110.002Z" fill="#211715"/>
<path d="M70.4549 107.172C69.3128 108.465 68.2577 109.83 67.1686 111.166C66.1365 112.434 65.0593 113.581 64.6613 115.218C64.1213 117.438 65.0834 118.979 66.2145 120.735C67.5386 122.791 68.9567 124.784 70.4719 126.704C71.934 128.558 73.5192 130.403 75.5064 131.713C76.4815 132.356 77.6246 131.822 78.2426 130.995C80.9269 127.408 83.4551 123.664 86.4214 120.301C87.3315 119.269 87.1035 117.939 86.0164 117.159C85.7504 116.968 85.4923 116.764 85.2323 116.564C85.7374 116.953 84.8993 116.305 84.7693 116.204C84.5022 115.996 84.2352 115.788 83.9692 115.58C82.526 114.453 81.0859 113.322 79.6458 112.191C77.5226 110.522 75.3854 108.867 73.2822 107.171C72.4421 106.494 71.275 106.35 70.4539 107.171C69.7528 107.872 69.6088 109.319 70.4539 110C74.9043 113.587 79.3527 117.279 83.9972 120.613L83.5921 117.471C80.4008 121.09 77.6756 125.117 74.7873 128.975L77.5236 128.257C76.2774 127.435 74.7793 125.716 73.6332 124.295C72.3311 122.68 71.1409 120.969 70.0038 119.235C69.5978 118.615 69.1987 117.992 68.8167 117.359C68.7047 117.173 68.5747 116.988 68.4817 116.791C68.4547 116.733 68.3967 116.671 68.3807 116.608C68.4877 117.034 68.4917 116.391 68.5017 116.329C68.6787 115.197 69.7508 114.298 70.4339 113.45C71.37 112.289 72.2921 111.117 73.2802 110C74.9793 108.077 72.161 105.237 70.4519 107.171L70.4549 107.172Z" fill="#211715"/>
<path d="M33.3131 85.4282C33.6601 86.2443 35.4763 89.9456 36.0443 90.5977C36.0443 90.5977 36.0654 90.6227 36.1044 90.6667C38.6326 89.2966 41.3929 88.2795 44.3102 87.4774C45.0672 87.2694 46.2983 87.0504 47.0454 87.2924C47.1104 87.3134 47.1644 87.3474 47.2274 87.3704C47.5405 87.1344 47.7285 86.9934 47.7285 86.9934L49.3446 85.7762C51.2288 84.0291 51.9429 82.954 52.0949 81.9519C52.3689 80.1507 52.1509 79.4476 51.3618 77.7545C50.5898 76.0963 49.1616 73.8611 48.2685 72.3409C47.8765 71.6729 47.4775 70.9958 46.9444 70.4607C46.2733 69.7857 45.4283 69.3756 44.5782 69.0826C43.054 68.5586 41.4449 68.3975 39.8987 68.6006C38.1126 68.8346 36.4104 69.5527 35.0152 70.7548C32.413 72.997 31.0219 76.9294 31.6999 80.6797C31.998 82.3299 32.659 83.889 33.3131 85.4282Z" fill="white"/>
<path d="M73.2467 116.555C72.9687 115.853 72.5077 115.217 72.0516 114.59C71.0145 113.164 69.4804 111.003 68.3003 109.732C67.0291 108.364 66.5061 107.928 64.7459 107.459C63.7658 107.198 62.5197 107.205 60.1655 108.234L58.5713 109.042C58.5713 109.042 57.7752 109.445 56.5971 110.043C56.6291 110.153 56.6551 110.259 56.6711 110.354C57.0162 112.427 56.0951 113.502 54.5049 114.533C53.0608 115.469 51.8437 116.139 50.5195 116.798C50.6915 117.441 50.8056 117.867 50.8056 117.867C51.1766 119.257 53.3218 122.542 53.9319 123.187C55.081 124.401 56.2261 125.497 57.6192 126.429C60.7865 128.549 65.114 128.861 68.2093 127.372C69.7394 126.636 70.9975 125.495 71.9116 124.111C72.8477 122.695 73.4238 121.025 73.5638 119.274C73.6358 118.378 73.5968 117.439 73.2467 116.555Z" fill="white"/>
<path d="M33.7603 92.0677C34.0763 91.8497 34.3963 91.6397 34.7223 91.4377C37.6026 89.6445 40.8579 88.4274 44.3103 87.4773C45.0674 87.2693 46.2985 87.0502 47.0455 87.2923C48.2817 87.6933 49.1848 88.4394 49.5268 89.6375C49.8688 90.8356 49.6868 92.1287 49.2928 93.3109L49.1638 93.8969C49.7168 93.8039 50.2909 93.7739 50.7159 93.8969C51.965 94.2549 52.8941 94.969 53.2772 96.1541C53.6612 97.3392 53.5242 98.6384 53.1711 99.8335C53.1711 99.8335 52.9991 100.449 52.7961 101.171C52.9291 101.183 53.0551 101.204 53.1701 101.237C54.3823 101.584 55.2834 102.277 55.6564 103.427C56.0294 104.577 55.8954 105.838 55.5534 106.997C55.5534 106.997 55.3824 107.66 55.1883 108.42C56.1794 108.781 56.5725 109.763 56.6715 110.355C57.0165 112.426 56.0954 113.502 54.5053 114.533C52.3301 115.943 50.6749 116.749 48.3857 117.826C48.4607 119.222 48.8987 120.563 49.2148 121.922C49.5098 123.188 49.6988 124.519 49.3888 125.781C49.0177 127.293 47.7976 128.694 46.1315 128.637C46.3855 129.988 46.6755 131.365 46.5595 132.741C46.4525 134.01 45.9544 135.301 44.9573 136.093C44.5693 136.402 44.1193 136.625 43.6552 136.8C42.1251 137.378 40.3849 137.432 38.8527 136.858C38.2497 136.633 37.6856 136.316 37.1336 135.984C34.4503 134.371 32.0011 132.368 29.8869 130.059C29.3828 129.509 28.8708 128.875 28.8558 128.129C28.8438 127.514 29.1738 126.95 29.4938 126.425C30.666 124.498 30.675 124.484 33.0082 120.646C31.329 115.547 29.6499 110.45 27.9717 105.351C27.2586 103.187 27.4696 98.4123 29.1158 96.3631C30.4879 94.655 32.0501 93.2458 33.7593 92.0667L33.7603 92.0677Z" fill="white"/>
<path d="M33.7132 89.7097C31.298 91.2408 28.8548 93.169 27.2356 95.5613C25.9475 97.4644 25.5904 100.052 25.5864 102.301C25.5814 104.953 26.5155 107.313 27.3346 109.8C28.4217 113.101 29.5088 116.402 30.5969 119.705C31.399 122.139 35.2634 121.096 34.4543 118.642C33.5182 115.8 32.5831 112.96 31.647 110.119C30.925 107.927 29.7659 105.569 29.6148 103.247C29.5048 101.557 29.5918 99.5677 30.4059 98.0405C31.486 96.0133 33.8382 94.3641 35.7314 93.164C37.8996 91.7889 35.8964 88.3256 33.7132 89.7097Z" fill="#211715"/>
<path d="M51.2207 93.8431C51.8938 91.7259 51.9898 89.2176 50.5757 87.3744C49.3366 85.7593 47.3354 85.0042 45.3392 85.2582C43.343 85.5122 41.3718 86.2163 39.4966 86.9274C37.4914 87.6875 35.5392 88.5845 33.712 89.7097C32.7929 90.2757 32.4399 91.4988 32.994 92.4459C33.531 93.364 34.8071 93.732 35.7302 93.164C38.4805 91.4708 41.4788 90.3417 44.5821 89.4776C45.2972 89.2786 45.6102 89.2226 46.2453 89.1866C46.7933 89.1556 46.1753 89.1306 46.4223 89.1976C46.5123 89.2226 46.8573 89.3526 46.6243 89.2496C46.7473 89.3036 46.8673 89.3686 46.9833 89.4366C46.9903 89.4406 47.3924 89.7337 47.2594 89.6166C47.1033 89.4786 47.4434 89.8197 47.4714 89.8547C47.2954 89.6386 47.4854 89.8947 47.5364 90.0017C47.6654 90.2727 47.4764 89.6146 47.5974 90.1707C47.6344 90.3427 47.6954 90.5137 47.7124 90.6898C47.7784 91.3658 47.5754 92.1119 47.3624 92.781C47.0353 93.8101 47.7474 94.9632 48.7595 95.2412C49.8386 95.5372 50.8917 94.8772 51.2197 93.8441L51.2207 93.8431Z" fill="#211715"/>
<path d="M55.1001 100.365C55.7212 98.1457 55.7342 95.5684 54.154 93.7343C52.7119 92.0601 50.5707 91.6121 48.4775 91.9941C46.5693 92.3431 44.6751 93.1712 42.8949 93.9193C40.8667 94.7714 38.8905 95.7345 37.0554 96.9536C36.1563 97.5506 35.7702 98.7198 36.3373 99.6899C36.8593 100.583 38.1705 101.008 39.0736 100.408C41.8248 98.5807 44.8841 97.2816 48.0174 96.2655C48.3425 96.1605 48.6675 96.0545 48.9985 95.9715C49.1775 95.9265 49.3586 95.8855 49.5406 95.8515C49.5846 95.8435 49.8876 95.8155 49.6896 95.8305C49.8686 95.8175 50.0536 95.8075 50.2326 95.8235C50.3877 95.8315 50.3707 95.8315 50.1826 95.8255L50.3997 95.8925C50.4437 95.9135 50.7147 96.0255 50.5307 95.9375C50.6867 96.0115 50.8417 96.1005 50.9837 96.1985C50.9947 96.2065 51.2397 96.4845 51.2437 96.4925C51.2707 96.5405 51.4268 96.9066 51.3478 96.6866C51.4058 96.8486 51.4548 97.0306 51.4818 97.2006C51.5898 97.8907 51.4338 98.6187 51.2427 99.3018C50.5477 101.785 54.4061 102.844 55.1001 100.365Z" fill="#211715"/>
<path d="M57.4821 107.529C58.0942 105.35 58.0862 102.868 56.5661 101.056C55.2359 99.4707 53.1807 98.9776 51.2105 99.2947C49.4654 99.5757 47.7122 100.279 46.075 100.931C44.2669 101.651 42.5367 102.498 40.9145 103.577C40.0164 104.175 39.6294 105.343 40.1965 106.313C40.7185 107.205 42.0296 107.632 42.9327 107.031C45.542 105.295 47.9572 104.398 50.9365 103.473C51.2445 103.378 51.5526 103.291 51.8686 103.225C51.9266 103.213 52.3626 103.148 52.0496 103.183C52.2156 103.165 52.3816 103.164 52.5487 103.159C52.8187 103.15 52.2146 103.015 52.6377 103.164C52.6797 103.179 53.1567 103.343 52.9457 103.257C52.7537 103.178 53.2107 103.4 53.2077 103.398C53.2537 103.424 53.6288 103.704 53.4437 103.547C53.2617 103.393 53.6288 103.754 53.6248 103.749C53.4367 103.543 53.5808 103.71 53.6688 103.846C53.7748 104.009 53.6308 103.614 53.7268 103.957C53.7508 104.043 53.8568 104.431 53.8508 104.394C53.9708 105.082 53.8278 105.739 53.6248 106.464C53.3327 107.503 53.9848 108.64 55.0219 108.925C56.072 109.213 57.1891 108.572 57.4821 107.527V107.529Z" fill="#211715"/>
<path d="M46.4055 118.11C46.5145 119.202 46.7336 120.256 47.0036 121.316C47.1326 121.821 47.2646 122.325 47.3716 122.834C47.4256 123.09 47.4756 123.347 47.5126 123.606C47.4566 123.216 47.5296 123.87 47.5346 123.949C47.5476 124.175 47.5526 124.402 47.5436 124.629C47.5396 124.758 47.5306 124.887 47.5176 125.015C47.5496 124.804 47.5446 124.818 47.5026 125.058C47.4496 125.269 47.3926 125.473 47.3296 125.681C47.2156 126.057 47.4966 125.376 47.2506 125.825C47.1736 125.965 47.0866 126.164 46.9686 126.272C47.3496 125.923 46.8586 126.347 46.7846 126.426C46.6175 126.569 46.6365 126.558 46.8436 126.391C46.7626 126.447 46.6795 126.499 46.5935 126.548C46.3955 126.647 46.4215 126.642 46.6705 126.534C46.5775 126.569 46.4825 126.599 46.3865 126.624C45.3814 126.912 44.6543 128.049 44.9894 129.085C45.3204 130.108 46.3725 130.79 47.4496 130.482C49.9609 129.763 51.321 127.399 51.525 124.92C51.627 123.68 51.386 122.402 51.097 121.201C50.968 120.663 50.8229 120.129 50.6929 119.591C50.6239 119.307 50.5589 119.022 50.5019 118.735C50.4709 118.576 50.4469 118.415 50.4169 118.256C50.3529 117.91 50.4639 118.722 50.4039 118.111C50.3009 117.073 49.5578 116.059 48.4037 116.111C47.4086 116.156 46.2925 116.996 46.4035 118.111L46.4055 118.11Z" fill="#211715"/>
<path d="M50.4328 119.061C52.2799 118.175 54.1241 117.231 55.8113 116.061C57.4844 114.9 58.7036 113.362 58.7426 111.244C58.7796 109.213 57.7785 107.245 55.8013 106.523C54.4211 106.019 52.648 106.265 51.2578 106.593C49.1666 107.088 47.1894 108.109 45.3533 109.201C44.4542 109.736 44.0471 111.026 44.6352 111.938C45.2183 112.843 46.4094 113.228 47.3715 112.656C48.1575 112.188 48.9576 111.744 49.7847 111.351C49.9527 111.271 50.1217 111.193 50.2917 111.118C50.3558 111.09 50.4348 111.04 50.5038 111.026C50.1377 111.101 50.3117 111.105 50.4388 111.057C50.7628 110.935 51.0848 110.811 51.4159 110.705C51.9909 110.521 52.569 110.402 53.16 110.289C53.376 110.247 52.868 110.324 52.896 110.324C52.963 110.324 53.038 110.308 53.106 110.302C53.225 110.291 53.345 110.282 53.4651 110.276C53.7101 110.263 53.9561 110.261 54.2021 110.269C54.2251 110.269 54.5802 110.292 54.5802 110.291C54.5732 110.329 54.1991 110.193 54.4131 110.278C54.5652 110.338 54.6992 110.248 54.4952 110.284C54.3611 110.307 54.3491 110.195 54.4902 110.292C54.7242 110.453 54.4031 110.263 54.3861 110.187C54.3881 110.195 54.5102 110.306 54.5162 110.306C54.5582 110.346 54.5982 110.388 54.6362 110.432L54.4642 110.204C54.4852 110.302 54.6072 110.438 54.6622 110.53C54.8862 110.9 54.5752 110.193 54.6372 110.47C54.6592 110.569 54.6912 110.672 54.7192 110.77C54.7352 110.826 54.7862 111.012 54.7282 110.777C54.6602 110.5 54.7352 110.918 54.7382 110.963C54.7462 111.122 54.7202 111.29 54.7332 111.447C54.7512 111.655 54.7432 111.258 54.7682 111.237C54.7512 111.251 54.7292 111.44 54.7192 111.481C54.6982 111.567 54.5272 112.008 54.6682 111.696C54.8042 111.395 54.5762 111.834 54.5252 111.925C54.3051 112.323 54.7442 111.713 54.5172 111.948C54.4171 112.052 54.3221 112.159 54.2181 112.258C54.1881 112.287 53.9321 112.565 53.8791 112.554C53.9191 112.562 54.2111 112.317 53.9631 112.487C53.8671 112.553 53.7721 112.622 53.6761 112.687C52.0099 113.81 50.2227 114.74 48.4146 115.607C47.4685 116.061 47.1444 117.487 47.6965 118.343C48.3226 119.314 49.4217 119.546 50.4328 119.061Z" fill="#211715"/>
<path d="M37.4584 89.1827C37.8595 89.6787 37.4714 89.1576 37.3804 89.0086C37.2344 88.7686 37.0984 88.5226 36.9634 88.2766C36.6203 87.6525 36.2953 87.0174 35.9773 86.3804C35.3832 85.1913 34.8292 83.9931 34.3681 82.745C33.161 79.4707 33.173 75.6653 35.6442 72.9371C37.8295 70.5258 41.5548 69.8128 44.5141 71.1949C46.0583 71.917 46.7613 73.7191 47.5974 75.1093C48.4905 76.5934 49.5476 78.1466 50.0627 79.8157C50.4977 81.2269 50.1157 82.077 49.2416 83.0481C48.4315 83.9481 47.7584 84.4822 46.7183 85.2653C45.8562 85.9143 45.4102 86.9924 46.0003 88.0015C46.4963 88.8506 47.8684 89.3727 48.7365 88.7196C51.4138 86.7034 54.076 84.5322 54.2011 80.9239C54.2801 78.6416 53.0449 76.5054 51.9388 74.5902C50.8667 72.7321 49.8136 70.3978 48.2275 68.9247C44.7891 65.7294 38.7025 65.8434 34.9252 68.3326C30.8238 71.0349 28.9786 76.1044 29.7137 80.8688C30.0667 83.1601 31.0538 85.3713 32.0539 87.4485C32.803 89.0056 33.536 90.6588 34.6281 92.0109C35.3072 92.852 36.7494 92.718 37.4564 92.0109C38.2875 91.1798 38.1375 90.0247 37.4564 89.1827H37.4584Z" fill="#211715"/>
<path d="M48.8764 118.4C49.9295 121.913 52.6378 125.125 55.4791 127.329C59.1854 130.205 64.2909 131.221 68.6863 129.336C72.8818 127.535 75.657 123.051 75.594 118.499C75.557 115.864 74.0969 113.996 72.6077 111.97C71.3526 110.262 70.0785 108.412 68.4213 107.063C66.7952 105.738 64.641 105.117 62.5668 105.419C60.7676 105.681 59.1634 106.504 57.5623 107.317C55.265 108.481 57.2882 111.933 59.5815 110.771C60.4915 110.309 61.3636 109.84 62.3487 109.55C62.9728 109.366 63.3888 109.273 64.0009 109.331C63.6359 109.296 64.2969 109.413 64.3839 109.436C64.731 109.53 65.066 109.629 65.384 109.796C66.5421 110.404 67.4922 111.793 68.2843 112.822C68.8264 113.526 69.3454 114.248 69.8675 114.967C70.4085 115.714 71.0856 116.474 71.4096 117.346C71.9447 118.782 71.4396 120.745 70.7845 122.068C70.0835 123.485 69.0314 124.653 67.6422 125.418C64.724 127.027 60.9356 126.348 58.3133 124.486C57.4803 123.894 56.7312 123.185 56.0121 122.461C55.7281 122.175 55.4391 121.89 55.181 121.581C55.4401 121.891 54.969 121.275 54.898 121.173C54.0959 120.011 53.0718 118.461 52.7348 117.338C51.9977 114.877 48.1353 115.925 48.8774 118.401L48.8764 118.4Z" fill="#211715"/>
<path d="M150.571 137.176C162.896 120.856 167.761 100.363 165.935 80.1387C164.396 63.0961 159.566 46.0094 149.598 31.909C141.003 19.7488 129.031 10.5209 115.097 5.27543C100.586 -0.187096 84.659 -1.09218 69.4025 1.11803C54.4941 3.27824 40.0987 8.94279 28.3315 18.4457C16.5644 27.9486 8.26658 41.0899 3.94816 55.5263C1.50192 63.7061 0.300803 72.257 0.0537793 80.7808C-0.219247 90.1937 0.526826 99.7486 2.76204 108.91C6.74143 125.213 15.6983 140.128 28.6316 150.886C40.6567 160.889 55.4812 167.213 70.9597 169.319C89.9305 171.901 109.525 168.17 126.147 158.613C130.645 156.027 134.88 153.012 138.834 149.655L136.41 149.969C143.874 153.385 151.528 156.566 159.261 159.316C161.058 159.955 162.196 157.813 161.521 156.378C158.129 149.176 154.421 142.125 150.572 135.158C149.327 132.904 145.871 134.92 147.118 137.177C150.966 144.143 154.676 151.196 158.066 158.397L160.325 155.459C152.915 152.824 145.58 149.788 138.429 146.515C137.549 146.112 136.742 146.202 136.005 146.828C121.098 159.482 101.622 166.329 82.0988 166.151C67.1713 166.015 52.3069 161.848 39.6266 153.935C26.5164 145.754 16.1013 133.544 10.2788 119.207C6.96145 111.039 5.05627 102.366 4.3792 93.586C3.70814 84.8802 3.87015 76.0503 5.30729 67.4255C7.73153 52.8811 13.7341 38.9647 23.8391 28.0987C33.496 17.7146 46.1863 10.736 59.8356 7.13162C74.148 3.35225 89.6675 2.79319 104.119 6.14252C117.727 9.29583 130.258 16.1245 139.883 26.3005C150.606 37.6366 157.007 52.283 160.091 67.4505C163.954 86.4453 163.089 106.522 154.129 124.011C152.124 127.925 149.767 131.649 147.117 135.158C146.466 136.021 146.98 137.394 147.835 137.894C148.86 138.493 149.918 138.041 150.571 137.176Z" fill="#211715"/>
<path d="M168.926 183.469C163.522 192.208 158.873 201.38 154.973 210.886C151.201 220.078 147.762 229.765 146.027 239.574C144.429 248.609 144.904 258.637 151.759 265.51C157.661 271.426 166.515 273.622 174.633 272.381C184.84 270.822 193.36 263.869 199.473 255.898C200.197 254.954 199.619 253.435 198.684 252.887C197.55 252.224 196.399 252.73 195.674 253.677C190.792 260.043 184.124 265.498 176.252 267.557C169.323 269.369 161.222 268.075 155.757 263.232C149.404 257.602 148.873 248.818 150.235 240.951C151.818 231.798 154.961 222.763 158.372 214.149C162.29 204.258 167.131 194.737 172.726 185.691C174.219 183.276 170.415 181.063 168.926 183.469Z" fill="#211715"/>
<path d="M243.289 130.832C245.829 132.173 248.562 132.738 251.433 132.719C254.371 132.7 257.32 132.113 259.671 130.281C260.583 129.57 260.473 127.906 259.671 127.17C258.704 126.281 257.533 126.411 256.56 127.17C257.232 126.645 256.731 127.032 256.558 127.143C256.396 127.247 256.228 127.343 256.057 127.433C255.969 127.479 255.878 127.521 255.788 127.566C255.538 127.695 255.589 127.52 255.896 127.529C255.709 127.524 255.389 127.721 255.206 127.78C254.576 127.983 253.928 128.122 253.274 128.221C253.606 128.171 253.27 128.218 253.116 128.234C252.926 128.253 252.737 128.269 252.547 128.281C252.09 128.311 251.632 128.322 251.174 128.319C250.764 128.317 250.354 128.303 249.944 128.275C249.756 128.262 249.568 128.247 249.381 128.228C249.339 128.224 248.658 128.117 249.135 128.202C248.526 128.093 247.924 127.979 247.33 127.801C247.077 127.725 246.831 127.635 246.581 127.549C246.026 127.36 246.929 127.726 246.428 127.49C246.118 127.344 245.813 127.192 245.51 127.032C244.493 126.494 243.071 126.739 242.5 127.821C241.963 128.838 242.203 130.257 243.289 130.831V130.832Z" fill="#211715"/>
<path d="M250.271 111.702C250.624 113.048 250.963 114.414 251.165 115.792L251.086 115.207C251.11 115.396 251.12 115.582 251.101 115.772L251.18 115.187C251.167 115.275 251.147 115.357 251.118 115.441L251.34 114.915C251.314 114.974 251.287 115.025 251.25 115.078L251.594 114.633C251.552 114.684 251.512 114.723 251.46 114.765L251.905 114.421C251.802 114.487 251.693 114.541 251.581 114.592L252.107 114.37C251.929 114.444 251.752 114.499 251.561 114.529L252.146 114.45C251.974 114.47 251.806 114.469 251.634 114.45L252.219 114.529C252.026 114.502 251.836 114.455 251.643 114.429C251.351 114.337 251.058 114.324 250.766 114.39C250.473 114.403 250.201 114.49 249.948 114.651C249.492 114.918 249.056 115.441 248.937 115.966C248.809 116.529 248.836 117.161 249.159 117.661C249.445 118.105 249.924 118.598 250.474 118.672C250.923 118.733 251.359 118.846 251.815 118.866C252.52 118.897 253.174 118.68 253.803 118.391C254.583 118.033 255.192 117.327 255.4 116.487C255.576 115.775 255.501 115.16 255.38 114.448C255.157 113.13 254.853 111.825 254.514 110.532C254.375 110.001 253.975 109.493 253.503 109.217C253.031 108.941 252.336 108.824 251.808 108.995C250.662 109.366 249.959 110.509 250.271 111.702Z" fill="#211715"/>
<path d="M228.743 100.093C228.06 102.313 228.505 107.418 232.71 107.853C238.268 107.82 238.564 101.647 236.693 98.7435C235.161 96.3673 230.656 95.3782 228.743 100.093Z" fill="#211715"/>
<path d="M273.251 100.093C273.935 102.313 273.489 107.418 269.284 107.854C263.727 107.82 263.43 101.647 265.301 98.7436C266.833 96.3674 271.337 95.3793 273.25 100.093H273.251Z" fill="#211715"/>
<path d="M265.41 62.7691C267.419 70.3689 269.555 77.9936 274.205 84.4472C278.556 90.4858 284.459 96.1954 291.707 98.4796C294.414 99.3327 295.573 95.0853 292.877 94.2362C286.534 92.238 281.225 86.8855 277.526 81.5469C273.375 75.5584 271.496 68.5677 269.654 61.599C268.931 58.8637 264.686 60.0238 265.411 62.7691H265.41Z" fill="#211715"/>
<path d="M265.464 60.6229C260.723 66.9795 254.654 72.301 247.66 76.0474C245.915 76.9825 244.119 77.8296 242.275 78.5496C241.407 78.8887 240.53 79.2127 239.643 79.5007C239.265 79.6237 238.9 79.6978 238.519 79.7818C238.103 79.7558 238.058 79.7678 238.383 79.8168C238.498 79.9438 238.593 80.0868 238.669 80.2438C238.48 80.2128 240.235 70.5559 240.349 69.6448C240.598 67.6586 237.833 66.8725 236.593 68.0886C228.907 75.6344 221.102 83.0951 212.769 89.9297C211.85 90.6838 211.987 92.259 212.769 93.041C213.678 93.9501 214.96 93.7971 215.881 93.041C224.213 86.2064 232.018 78.7457 239.704 71.1999L235.948 69.6438C235.53 72.9821 234.584 76.2454 234.325 79.6077C234.189 81.3759 234.773 82.9331 236.427 83.7522C238.144 84.6032 240.07 84.0132 241.76 83.4161C248.798 80.9299 255.269 77.1085 260.845 72.146C263.983 69.3527 266.754 66.2064 269.263 62.8411C269.974 61.888 269.418 60.3829 268.474 59.8308C267.351 59.1738 266.177 59.6648 265.463 60.6199L265.464 60.6229Z" fill="#211715"/>
</g>
<defs>
<clipPath id="clip0_5448_162">
<rect width="339" height="272.716" fill="white"/>
</clipPath>
</defs>
</svg>
