<svg width="363" height="32" viewBox="0 0 363 32" fill="none" xmlns="http://www.w3.org/2000/svg">
<rect x="31" y="17" width="302" height="14" fill="#CBD97B"/>
<path d="M38.511 15.873L40.359 16.629C39.036 17.952 36.957 18.939 34.983 19.569C34.689 19.107 34.122 18.519 33.66 18.141C35.424 17.679 37.461 16.818 38.511 15.873ZM40.569 17.784L42.375 18.519C40.695 20.346 37.902 21.606 35.004 22.341C34.731 21.879 34.248 21.186 33.807 20.766C36.432 20.241 39.183 19.191 40.569 17.784ZM42.102 20.157L44.244 21.039C42.06 23.622 38.301 25.008 33.996 25.806C33.744 25.197 33.219 24.357 32.736 23.832C36.621 23.307 40.296 22.152 42.102 20.157ZM35.655 6.15L37.944 6.717C36.999 9.216 35.403 11.589 33.744 13.08C33.324 12.681 32.4 11.946 31.854 11.631C33.492 10.35 34.899 8.292 35.655 6.15ZM35.634 8.292H44.097V10.308H34.416L35.634 8.292ZM40.632 8.796L42.984 9.3C41.325 13.374 37.902 15.684 33.597 17.007C33.324 16.503 32.568 15.537 32.127 15.096C36.243 14.109 39.393 12.177 40.632 8.796ZM35.613 9.447C36.936 11.778 40.086 14.067 44.79 14.823C44.328 15.306 43.698 16.23 43.404 16.839C38.679 15.789 35.508 13.08 34.038 10.434L35.613 9.447ZM30.3 8.859H32.484V22.383H30.3V8.859ZM28.368 6.234L30.699 6.927C29.502 10.602 27.57 14.571 25.407 17.091C25.218 16.482 24.588 15.033 24.21 14.361C25.89 12.387 27.444 9.321 28.368 6.234ZM26.73 11.967L29.061 9.657L29.124 9.699V25.869H26.73V11.967ZM55.773 12.933V14.739H62.136V12.933H55.773ZM55.773 9.195V10.959H62.136V9.195H55.773ZM53.505 7.053H64.53V16.86H53.505V7.053ZM53.358 18.666H64.761V20.934H53.358V18.666ZM51.888 22.95H65.454V25.218H51.888V22.95ZM45.735 7.368H52.707V9.72H45.735V7.368ZM45.945 13.416H52.35V15.747H45.945V13.416ZM45.504 21.396C47.31 20.934 49.998 20.094 52.518 19.275L52.959 21.69C50.607 22.488 48.087 23.307 46.071 23.958L45.504 21.396ZM48.066 8.292H50.46V21.207L48.066 21.585V8.292ZM57.936 7.956H60.057V15.873H60.288V24.021H57.705V15.873H57.936V7.956ZM76.5 13.353C77.97 13.353 79.167 14.55 79.167 16.02C79.167 17.511 77.97 18.708 76.5 18.708C75.009 18.708 73.812 17.511 73.812 16.02C73.812 14.55 75.009 13.353 76.5 13.353ZM87.63 18.75H107.37V21.06H87.63V18.75ZM88.491 7.305H106.53V9.615H88.491V7.305ZM91.788 14.907H103.38V17.049H91.788V14.907ZM102.456 11.001H104.955V23.16C104.955 24.441 104.682 25.113 103.8 25.512C102.939 25.89 101.7 25.932 99.915 25.932C99.789 25.26 99.39 24.168 99.033 23.559C100.188 23.622 101.574 23.601 101.931 23.58C102.309 23.58 102.456 23.475 102.456 23.139V11.001ZM90.024 11.001H103.443V13.269H92.523V25.911H90.024V11.001ZM96.135 7.998H98.676V19.548H96.135V7.998ZM112.347 9.972H126.963V12.429H112.347V9.972ZM111.486 16.167H126.165V18.582H111.486V16.167ZM109.05 22.824H128.034V25.281H109.05V22.824ZM117.219 6.171H119.844V24.042H117.219V6.171ZM112.368 6.423L114.972 7.011C114.048 10.266 112.515 13.5 110.877 15.516C110.373 15.075 109.26 14.34 108.609 13.983C110.268 12.219 111.612 9.321 112.368 6.423ZM138.681 7.431C138.555 7.977 138.429 8.649 138.303 9.174C138.114 10.119 137.841 11.421 137.631 12.492C136.938 15.453 135.237 21.438 133.053 24.987L130.302 23.895C132.801 20.535 134.376 14.991 134.964 12.345C135.363 10.455 135.594 8.67 135.573 7.095L138.681 7.431ZM145.926 9.384C147.207 11.211 148.971 15.201 149.622 17.217L146.955 18.456C146.409 16.104 144.918 12.324 143.406 10.455L145.926 9.384ZM130.176 11.736C130.932 11.778 131.646 11.757 132.423 11.736C134.103 11.694 138.072 11.232 139.647 11.232C141.852 11.232 143.427 12.219 143.427 15.264C143.427 17.742 143.133 21.144 142.251 22.95C141.537 24.42 140.382 24.882 138.807 24.882C137.988 24.882 137.001 24.756 136.266 24.588L135.825 21.816C136.644 22.047 137.841 22.257 138.387 22.257C139.101 22.257 139.626 22.047 139.962 21.354C140.55 20.178 140.823 17.616 140.823 15.558C140.823 13.878 140.088 13.626 138.786 13.626C137.526 13.626 133.914 14.088 132.759 14.235C132.15 14.319 131.058 14.466 130.428 14.571L130.176 11.736ZM156.993 7.095C158.988 7.725 163.566 8.544 165.414 8.733L164.784 11.316C162.642 11.022 157.98 10.056 156.342 9.636L156.993 7.095ZM157.14 11.316C156.846 12.492 156.489 15.033 156.342 16.251C158.232 14.865 160.332 14.235 162.537 14.235C166.212 14.235 168.354 16.503 168.354 19.044C168.354 22.887 165.309 25.827 156.594 25.071L155.775 22.32C162.096 23.202 165.414 21.669 165.414 18.981C165.414 17.616 164.133 16.629 162.285 16.629C159.912 16.629 157.791 17.511 156.468 19.107C156.09 19.548 155.859 19.884 155.691 20.304L153.255 19.716C153.675 17.658 154.179 13.542 154.305 10.938L157.14 11.316ZM176.355 25.449C175.074 23.895 173.289 22.089 171.819 20.829L174.024 18.939C175.515 20.157 177.531 22.215 178.602 23.517L176.355 25.449ZM192.945 23.307H212.055V25.533H192.945V23.307ZM197.649 18.078H207.288V19.821H197.649V18.078ZM197.649 20.682H207.288V22.425H197.649V20.682ZM196.431 15.201H208.59V24.525H206.007V17.238H198.909V24.609H196.431V15.201ZM193.092 8.523H211.908V10.686H193.092V8.523ZM201.156 6.171H203.655V14.634H201.156V6.171ZM200.001 9.216L202.059 10.014C200.253 12.807 197.25 15.201 194.058 16.419C193.701 15.852 193.008 14.949 192.483 14.487C195.507 13.5 198.489 11.442 200.001 9.216ZM204.705 9.237C206.259 11.421 209.304 13.395 212.433 14.319C211.887 14.781 211.173 15.726 210.816 16.356C207.582 15.159 204.537 12.786 202.71 10.014L204.705 9.237ZM217.683 12.513H229.296V14.907H217.683V12.513ZM223.479 17.553H230.577V19.905H223.479V17.553ZM222.156 13.899H224.802V24.042L222.156 23.727V13.899ZM217.137 16.083L219.783 16.356C219.237 20.619 217.935 23.958 215.541 26.016C215.121 25.575 214.05 24.672 213.462 24.294C215.73 22.614 216.78 19.695 217.137 16.083ZM219.174 18.708C220.518 22.572 223.458 23.16 227.196 23.16C228.309 23.16 231.816 23.16 233.223 23.118C232.866 23.706 232.446 24.924 232.341 25.68H227.049C222.198 25.68 218.922 24.693 217.116 19.401L219.174 18.708ZM222.114 6.192H224.802V10.035H222.114V6.192ZM214.47 8.313H232.53V13.584H229.926V10.707H216.948V13.584H214.47V8.313ZM244.5 13.353C245.97 13.353 247.167 14.55 247.167 16.02C247.167 17.511 245.97 18.708 244.5 18.708C243.009 18.708 241.812 17.511 241.812 16.02C241.812 14.55 243.009 13.353 244.5 13.353ZM268.818 8.922V10.35H271.464V8.922H268.818ZM264.156 8.922V10.35H266.718V8.922H264.156ZM259.536 8.922V10.35H262.056V8.922H259.536ZM257.205 7.053H273.9V12.24H257.205V7.053ZM260.88 17.217V18.225H270.12V17.217H260.88ZM260.88 19.737V20.766H270.12V19.737H260.88ZM260.88 14.697V15.726H270.12V14.697H260.88ZM258.36 13.101H272.766V22.362H258.36V13.101ZM266.676 23.475L268.671 22.194C271.023 22.929 273.732 23.937 275.349 24.651L272.598 25.911C271.296 25.239 268.965 24.231 266.676 23.475ZM262.014 22.152L264.324 23.202C262.56 24.336 259.767 25.386 257.583 25.974C257.163 25.47 256.281 24.567 255.714 24.126C258.003 23.727 260.544 22.971 262.014 22.152ZM286.899 8.859H294.06V11.316H286.899V8.859ZM276.882 7.347H287.487V9.678H276.882V7.347ZM279.654 11.694H284.715V13.941H279.654V11.694ZM279.654 16.062H284.715V18.309H279.654V16.062ZM293.367 8.859H293.808L294.249 8.796L295.887 9.195C295.068 17.7 292.317 22.866 287.571 25.764C287.193 25.113 286.479 24.168 285.912 23.685C290.091 21.501 292.674 16.335 293.367 9.405V8.859ZM289.356 11.379C290.385 16.839 292.632 21.48 296.664 23.664C296.097 24.147 295.32 25.113 294.921 25.764C290.511 23.097 288.264 18.183 286.941 11.841L289.356 11.379ZM278.331 8.313H280.725V22.047H278.331V8.313ZM283.728 8.313H286.164V25.89H283.728V8.313ZM276.399 21.123C278.478 20.892 281.607 20.472 284.568 20.052L284.715 22.341C281.985 22.824 279.066 23.286 276.861 23.622L276.399 21.123ZM309.537 7.032C309.474 7.452 309.411 7.977 309.39 8.523C309.348 9.594 309.327 12.576 309.327 14.34C309.327 16.65 309.663 20.451 309.663 22.11C309.663 23.916 308.298 25.302 305.547 25.302C302.187 25.302 300.423 24.021 300.423 21.795C300.423 19.674 302.376 18.183 305.589 18.183C310.209 18.183 313.653 20.451 315.396 21.921L313.884 24.273C311.889 22.383 308.844 20.346 305.253 20.346C303.783 20.346 302.964 20.913 302.964 21.648C302.964 22.446 303.699 22.929 305.148 22.929C306.261 22.929 307.017 22.614 307.017 21.396C307.017 20.136 306.786 16.377 306.786 14.34C306.786 12.324 306.807 9.657 306.807 8.46C306.807 8.082 306.765 7.431 306.681 7.032H309.537ZM300.822 8.985C302.313 9.237 304.728 9.447 306.009 9.447C308.865 9.447 311.616 9.3 314.682 8.817L314.661 11.211C312.519 11.505 309.18 11.757 306.03 11.757C304.686 11.757 302.25 11.568 300.864 11.4L300.822 8.985ZM300.696 13.521C302.082 13.773 304.644 13.92 305.757 13.92C309.642 13.92 312.351 13.668 314.934 13.332L314.913 15.81C312.015 16.146 309.726 16.272 305.736 16.272C304.497 16.272 302.124 16.167 300.738 15.999L300.696 13.521ZM319.449 9.615C320.268 9.594 321.108 9.552 321.507 9.51C323.25 9.342 326.715 9.048 330.558 8.712C332.742 8.544 335.031 8.397 336.522 8.334L336.543 11.043C335.409 11.043 333.603 11.064 332.469 11.316C329.949 11.988 328.038 14.718 328.038 17.217C328.038 20.661 331.272 21.921 334.821 22.089L333.834 24.966C329.445 24.693 325.287 22.32 325.287 17.763C325.287 14.76 326.988 12.366 328.395 11.295C326.442 11.505 322.137 11.967 319.722 12.492L319.449 9.615ZM333.54 13.101C334.044 13.836 334.8 15.117 335.199 15.957L333.624 16.65C333.078 15.516 332.637 14.676 331.986 13.752L333.54 13.101ZM335.871 12.135C336.417 12.87 337.215 14.109 337.656 14.928L336.081 15.684C335.514 14.55 335.031 13.752 334.359 12.828L335.871 12.135Z" fill="black"/>
<line x1="361.459" y1="2.35269" x2="354.459" y2="31.3527" stroke="black" stroke-width="3"/>
<line x1="8.5448" y1="31.3519" x2="1.54502" y2="2.3519" stroke="black" stroke-width="3"/>
</svg>
