<svg width="1512" height="218" viewBox="0 0 1512 218" fill="none" xmlns="http://www.w3.org/2000/svg">
<path fill-rule="evenodd" clip-rule="evenodd" d="M-153.594 217.987L-189 217.987C-189 217.987 -189 117.418 -189 52.8988C-189 38.869 -183.452 25.4143 -173.576 15.4937C-163.701 5.57347 -150.307 4.00195e-07 -136.341 -8.26324e-07C-72.1139 -6.46674e-06 28 -1.52588e-05 28 -1.52588e-05L28 20.2199C-69.7042 36.0364 -145.662 117.462 -153.594 217.987V217.987Z" fill="#F1F1F1"/>
<path fill-rule="evenodd" clip-rule="evenodd" d="M324.406 217.987L289 217.987C289 217.987 289 117.418 289 52.8988C289 38.869 294.548 25.4143 304.424 15.4937C314.299 5.57347 327.693 4.00195e-07 341.659 -8.26324e-07C405.886 -6.46674e-06 506 -1.52588e-05 506 -1.52588e-05L506 20.2199C408.296 36.0364 332.338 117.462 324.406 217.987V217.987Z" fill="#F1F1F1"/>
<path fill-rule="evenodd" clip-rule="evenodd" d="M802.406 217.987L767 217.987C767 217.987 767 117.418 767 52.8988C767 38.869 772.548 25.4143 782.424 15.4937C792.299 5.57347 805.693 4.00195e-07 819.659 -8.26324e-07C883.886 -6.46674e-06 984 -1.52588e-05 984 -1.52588e-05L984 20.2199C886.296 36.0364 810.338 117.462 802.406 217.987V217.987Z" fill="#F1F1F1"/>
<path fill-rule="evenodd" clip-rule="evenodd" d="M1280.41 217.987L1245 217.987C1245 217.987 1245 117.418 1245 52.8988C1245 38.869 1250.55 25.4143 1260.42 15.4937C1270.3 5.57347 1283.69 4.00195e-07 1297.66 -8.26324e-07C1361.89 -6.46674e-06 1462 -1.52588e-05 1462 -1.52588e-05L1462 20.2199C1364.3 36.0364 1288.34 117.462 1280.41 217.987V217.987Z" fill="#F1F1F1"/>
<path fill-rule="evenodd" clip-rule="evenodd" d="M231.594 217.987L267 217.987C267 217.987 267 117.418 267 52.8988C267 38.869 261.452 25.4143 251.576 15.4937C241.701 5.57348 228.307 1.48586e-05 214.341 1.60851e-05C150.114 2.17255e-05 50 3.05176e-05 50 3.05176e-05L50 20.2199C147.704 36.0364 223.662 117.462 231.594 217.987V217.987Z" fill="#F1F1F1"/>
<path fill-rule="evenodd" clip-rule="evenodd" d="M709.594 217.987L745 217.987C745 217.987 745 117.418 745 52.8988C745 38.869 739.452 25.4143 729.576 15.4937C719.701 5.57348 706.307 1.48586e-05 692.341 1.60851e-05C628.114 2.17255e-05 528 3.05176e-05 528 3.05176e-05L528 20.2199C625.704 36.0364 701.662 117.462 709.594 217.987V217.987Z" fill="#F1F1F1"/>
<path fill-rule="evenodd" clip-rule="evenodd" d="M1187.59 217.987L1223 217.987C1223 217.987 1223 117.418 1223 52.8988C1223 38.869 1217.45 25.4143 1207.58 15.4937C1197.7 5.57348 1184.31 1.48586e-05 1170.34 1.60851e-05C1106.11 2.17255e-05 1006 3.05176e-05 1006 3.05176e-05L1006 20.2199C1103.7 36.0364 1179.66 117.462 1187.59 217.987V217.987Z" fill="#F1F1F1"/>
<path fill-rule="evenodd" clip-rule="evenodd" d="M1665.59 217.987L1701 217.987C1701 217.987 1701 117.418 1701 52.8988C1701 38.869 1695.45 25.4143 1685.58 15.4937C1675.7 5.57348 1662.31 1.48586e-05 1648.34 1.60851e-05C1584.11 2.17255e-05 1484 3.05176e-05 1484 3.05176e-05L1484 20.2199C1581.7 36.0364 1657.66 117.462 1665.59 217.987V217.987Z" fill="#F1F1F1"/>
</svg>
