<svg width="1512" height="218" viewBox="0 0 1512 218" fill="none" xmlns="http://www.w3.org/2000/svg">
<path fill-rule="evenodd" clip-rule="evenodd" d="M-154.594 217.791L-190 217.791C-190 217.791 -190 117.677 -190 53.4503C-190 39.4841 -184.452 26.0903 -174.576 16.2146C-164.701 6.33928 -151.307 0.791062 -137.341 0.791061C-73.1139 0.791055 27 0.791046 27 0.791046L27 20.9194C-70.7042 36.6643 -146.662 117.721 -154.594 217.791V217.791Z" fill="white"/>
<path fill-rule="evenodd" clip-rule="evenodd" d="M324.297 217.791L288.891 217.791C288.891 217.791 288.891 117.677 288.891 53.4503C288.891 39.4841 294.439 26.0903 304.314 16.2146C314.19 6.33928 327.584 0.791062 341.55 0.791061C405.777 0.791055 505.891 0.791046 505.891 0.791046L505.891 20.9194C408.186 36.6643 332.228 117.721 324.297 217.791V217.791Z" fill="white"/>
<path fill-rule="evenodd" clip-rule="evenodd" d="M803.207 217.791L767.801 217.791C767.801 217.791 767.801 117.677 767.801 53.4503C767.801 39.4841 773.349 26.0903 783.224 16.2146C793.1 6.33928 806.494 0.791062 820.46 0.791061C884.687 0.791055 984.801 0.791046 984.801 0.791046L984.801 20.9194C887.097 36.6643 811.139 117.721 803.207 217.791V217.791Z" fill="white"/>
<path fill-rule="evenodd" clip-rule="evenodd" d="M1282.1 217.791L1246.69 217.791C1246.69 217.791 1246.69 117.677 1246.69 53.4503C1246.69 39.4841 1252.24 26.0903 1262.12 16.2146C1271.99 6.33928 1285.38 0.791062 1299.35 0.791061C1363.58 0.791055 1463.69 0.791046 1463.69 0.791046L1463.69 20.9194C1365.99 36.6643 1290.03 117.721 1282.1 217.791V217.791Z" fill="white"/>
<path fill-rule="evenodd" clip-rule="evenodd" d="M231.039 217.791L266.445 217.791C266.445 217.791 266.445 117.677 266.445 53.4503C266.445 39.4841 260.897 26.0903 251.022 16.2146C241.146 6.33928 227.752 0.791046 213.786 0.791047C149.559 0.791053 49.4453 0.791061 49.4453 0.791061L49.4453 20.9194C147.15 36.6643 223.108 117.721 231.039 217.791V217.791Z" fill="white"/>
<path fill-rule="evenodd" clip-rule="evenodd" d="M709.93 217.791L745.336 217.791C745.336 217.791 745.336 117.677 745.336 53.4503C745.336 39.4841 739.788 26.0903 729.912 16.2146C720.037 6.33928 706.643 0.791046 692.677 0.791047C628.45 0.791053 528.336 0.791061 528.336 0.791061L528.336 20.9194C626.04 36.6643 701.998 117.721 709.93 217.791V217.791Z" fill="white"/>
<path fill-rule="evenodd" clip-rule="evenodd" d="M1188.84 217.791L1224.25 217.791C1224.25 217.791 1224.25 117.677 1224.25 53.4503C1224.25 39.4841 1218.7 26.0903 1208.82 16.2146C1198.95 6.33928 1185.55 0.791046 1171.59 0.791047C1107.36 0.791053 1007.25 0.791061 1007.25 0.791061L1007.25 20.9194C1104.95 36.6643 1180.91 117.721 1188.84 217.791V217.791Z" fill="white"/>
<path fill-rule="evenodd" clip-rule="evenodd" d="M1667.73 217.791L1703.14 217.791C1703.14 217.791 1703.14 117.677 1703.14 53.4503C1703.14 39.4841 1697.59 26.0903 1687.71 16.2146C1677.84 6.33928 1664.44 0.791046 1650.48 0.791047C1586.25 0.791053 1486.14 0.791061 1486.14 0.791061L1486.14 20.9194C1583.84 36.6643 1659.8 117.721 1667.73 217.791V217.791Z" fill="white"/>
</svg>
