<?xml version="1.0" encoding="UTF-8" standalone="no"?><!DOCTYPE svg PUBLIC "-//W3C//DTD SVG 1.1//EN" "http://www.w3.org/Graphics/SVG/1.1/DTD/svg11.dtd"><svg width="100%" height="100%" viewBox="0 0 2925 405" version="1.1" xmlns="http://www.w3.org/2000/svg" xmlns:xlink="http://www.w3.org/1999/xlink" xml:space="preserve" xmlns:serif="http://www.serif.com/" style="fill-rule:evenodd;clip-rule:evenodd;stroke-linejoin:round;stroke-miterlimit:2;"><rect id="logo" x="0" y="0" width="2925" height="403.08" style="fill:none;"/><g id="logo1" serif:id="logo"><g><g><circle cx="379.411" cy="125.701" r="13.765" style="fill:#2d2d2d;"/><circle cx="409.652" cy="122.028" r="19.91" style="fill:#2d2d2d;"/><path d="M286.388,204.125c10.973,6.138 24.736,15.437 35.895,24.179c-14.321,15.437 -32.734,28.084 -54.494,35.338l18.041,21.388c53.192,-20.272 87.228,-70.675 101.177,-132.237l-18.599,-10.23l-48.914,0c2.417,-4.649 4.463,-9.299 6.323,-13.763l-25.108,-8.183c-10.23,27.526 -34.966,63.422 -60.818,82.021l19.9,16.552c16.181,-12.833 32.92,-32.733 46.311,-53.378l48.543,-0c-2.79,14.135 -8.369,28.642 -16.739,42.219c-10.787,-7.811 -24.178,-16.739 -35.151,-23.062l-16.367,19.156Z" style="fill:#2d2d2d;fill-rule:nonzero;"/></g><path d="M114.561,155.025c-20.087,10.229 -51.333,21.76 -81.277,28.828l0,-56.541l-26.968,0l-0,111.035c-0,24.365 16.367,39.43 44.823,41.29c7.068,0.372 16.553,0.744 27.154,0.744c16.925,-0 36.268,-0.744 52.263,-2.232l-0,-26.597c-15.437,2.418 -36.454,3.534 -53.379,3.534c-8.369,0 -15.995,-0.186 -21.016,-0.558c-17.483,-1.302 -22.877,-7.067 -22.877,-25.666l0,-20.831c34.594,-7.625 67.886,-18.599 94.668,-30.13l-13.391,-22.876Z" style="fill:#2d2d2d;fill-rule:nonzero;"/><path d="M513.394,144.981l0,24.923l103.409,-0l0,77.929l-103.409,-0l0,25.48l130.936,-0l-0,-128.332l-130.936,0Z" style="fill:#2d2d2d;fill-rule:nonzero;"/><path d="M784.205,129.73l-0,140.235l20.273,12.275c42.777,-14.879 81.462,-40.545 106.199,-70.303l-13.019,-25.666c-23.249,30.13 -57.099,52.82 -85.927,61.376l0,-117.917l-27.526,0Z" style="fill:#2d2d2d;fill-rule:nonzero;"/><path d="M1046.35,123.347l0,42.424l24.715,0l0,-21.99l120.071,-0l0,21.99l25.494,0l-0,-42.424l-72.393,0l-0,-15.568l-26.661,-0l-0,15.568l-71.226,0Zm80.372,121.045c0.779,9.146 -0.973,16.541 -4.67,20.433c-1.557,1.168 -3.698,1.946 -5.839,2.335c-3.502,0.195 -11.287,0.195 -15.957,-0.389l4.865,22.574c6.227,0.584 15.763,0.779 20.823,0.195c4.67,-0.389 8.952,-1.362 12.649,-3.697c19.85,-13.039 17.709,-68.501 -18.098,-100.028c5.838,-4.281 10.898,-8.951 15.568,-13.816c11.287,50.402 34.64,84.458 68.696,102.946l17.32,-20.434c-17.709,-7.784 -32.499,-19.46 -43.981,-35.613c14.011,-9.341 26.855,-18.876 35.807,-26.661l-17.125,-16.93c-6.811,7.2 -17.514,16.347 -29.385,25.104c-3.893,-8.563 -7.201,-17.904 -9.925,-28.412l27.05,-0l-0,-19.656l-106.838,0l-0,19.656l28.996,-0c-16.931,12.26 -39.894,21.601 -61.301,26.855l13.428,18.098c14.79,-4.67 30.164,-11.287 43.981,-19.46c1.751,1.751 3.503,3.503 5.059,5.254c-15.179,12.26 -39.894,21.991 -61.495,26.856l12.844,17.709c20.239,-6.617 42.424,-16.931 58.771,-30.164c1.362,2.335 2.53,4.67 3.503,7.006c-18.488,18.098 -50.792,31.915 -80.567,38.726l14.012,18.877c25.104,-7.784 51.959,-20.823 71.809,-37.364Z" style="fill:#2d2d2d;fill-rule:nonzero;"/><path d="M1315.47,112.06l0,107.228l124.547,-0l0,-107.228l-124.547,0Zm25.493,21.018l72.588,-0l0,10.314l-72.588,-0l0,-10.314Zm0,27.439l72.588,-0l0,10.314l-72.588,-0l0,-10.314Zm0,27.245l72.588,-0l0,10.508l-72.588,0l0,-10.508Zm47.873,72.003c21.018,10.704 39.116,20.629 53.517,30.164l25.882,-11.871c-16.347,-9.535 -33.861,-19.266 -54.489,-29.19l55.073,-0l-0,-21.018l-182.15,0l-0,21.018l53.516,-0c-14.79,10.508 -33.861,20.044 -52.933,26.855c23.158,13.817 23.353,14.012 23.548,14.012c18.682,-7.979 39.115,-18.877 54.489,-31.137l-21.99,-9.73l65.971,-0l-20.434,10.897Z" style="fill:#2d2d2d;fill-rule:nonzero;"/></g><path d="M2918.68,27.33c0,-6.238 -5.064,-11.302 -11.302,-11.302l-1139.69,0c-6.237,0 -11.302,5.064 -11.302,11.302l0,354.134c0,6.238 5.065,11.302 11.302,11.302l1139.69,0c6.238,0 11.302,-5.064 11.302,-11.302l0,-354.134Z" style="fill:#cdd979;"/><g><g><path d="M2020.94,90.499l-15.301,-0l0,80.812c0,7.162 5.806,12.968 12.968,12.968l80.813,0l-0,-8.699c-42.225,-6.804 -75.052,-41.834 -78.48,-85.081Z" style="fill:#fff;"/><path d="M1970.12,90.499l15.301,-0l0,80.812c0,7.162 -5.806,12.968 -12.968,12.968l-80.812,0l-0,-8.699c42.224,-6.804 75.051,-41.834 78.479,-85.081Z" style="fill:#fff;"/></g><g><path d="M2476.94,90.499l-15.301,-0l0,80.812c0,7.162 5.806,12.968 12.968,12.968l80.813,0l-0,-8.699c-42.225,-6.804 -75.052,-41.834 -78.48,-85.081Z" style="fill:#fff;"/><path d="M2426.12,90.499l15.301,-0l0,80.812c0,7.162 -5.806,12.968 -12.968,12.968l-80.812,0l-0,-8.699c42.224,-6.804 75.051,-41.834 78.479,-85.081Z" style="fill:#fff;"/></g><g><path d="M2248.95,90.499l-15.301,-0l0,80.812c0,7.162 5.806,12.968 12.968,12.968l80.813,0l-0,-8.699c-42.225,-6.804 -75.052,-41.834 -78.48,-85.081Z" style="fill:#fff;"/><path d="M2198.13,90.499l15.301,-0l0,80.812c0,7.162 -5.806,12.968 -12.968,12.968l-80.812,0l-0,-8.699c42.224,-6.804 75.051,-41.834 78.479,-85.081Z" style="fill:#fff;"/></g><g><path d="M2704.96,90.499l-15.302,-0l0,80.812c0,7.162 5.806,12.968 12.968,12.968l80.813,0l-0,-8.699c-42.225,-6.804 -75.052,-41.834 -78.479,-85.081Z" style="fill:#fff;"/><path d="M2654.13,90.499l15.301,-0l0,80.812c0,7.162 -5.806,12.968 -12.968,12.968l-80.812,0l-0,-8.699c42.224,-6.804 75.051,-41.834 78.479,-85.081Z" style="fill:#fff;"/></g></g><g><path d="M1927.27,227.841l31.128,0c12.126,0 21.129,1.801 27.008,5.402c5.88,3.601 8.82,9.206 8.82,16.815c-0,5.005 -1.282,9.278 -3.845,12.818c-2.564,3.54 -5.941,5.818 -10.132,6.836l-0,0.61c5.534,1.465 9.542,3.906 12.024,7.324c2.482,3.418 3.723,7.853 3.723,13.306c-0,8.097 -3.042,14.475 -9.125,19.134c-6.083,4.659 -14.374,6.989 -24.872,6.989l-34.729,-0l0,-89.234Zm24.109,34.241l7.263,0c3.459,0 6.134,-0.712 8.026,-2.136c1.893,-1.424 2.839,-3.54 2.839,-6.348c-0,-5.005 -3.785,-7.507 -11.353,-7.507l-6.775,-0l0,15.991Zm0,17.639l0,18.738l8.484,0c7.528,0 11.292,-3.174 11.292,-9.521c-0,-2.971 -1.008,-5.249 -3.022,-6.836c-2.014,-1.587 -4.933,-2.381 -8.758,-2.381l-7.996,0Z" style="fill:#fff;fill-rule:nonzero;"/><path d="M2045.61,284.604l-0,32.471l-24.109,-0l-0,-89.234l29.236,0c24.251,0 36.377,8.789 36.377,26.368c-0,10.335 -5.046,18.33 -15.137,23.986l26.001,38.88l-27.344,-0l-18.921,-32.471l-6.103,0Zm-0,-18.127l4.516,-0c8.423,-0 12.635,-3.723 12.635,-11.17c-0,-6.144 -4.13,-9.216 -12.391,-9.216l-4.76,-0l-0,20.386Z" style="fill:#fff;fill-rule:nonzero;"/><path d="M2170.84,317.075l-4.394,-16.724l-28.992,0l-4.517,16.724l-26.489,-0l29.114,-89.6l32.165,0l29.48,89.6l-26.367,-0Zm-9.399,-36.499l-3.846,-14.649c-0.895,-3.255 -1.983,-7.466 -3.265,-12.634c-1.282,-5.168 -2.126,-8.87 -2.533,-11.108c-0.366,2.075 -1.088,5.493 -2.167,10.254c-1.078,4.76 -3.468,14.139 -7.171,28.137l18.982,-0Z" style="fill:#fff;fill-rule:nonzero;"/><path d="M2301.82,317.075l-31.616,-0l-32.593,-62.866l-0.55,-0c0.774,9.887 1.16,17.435 1.16,22.644l0,40.222l-21.362,-0l-0,-89.234l31.494,0l32.471,62.012l0.366,0c-0.57,-8.992 -0.855,-16.215 -0.855,-21.667l0,-40.345l21.485,0l-0,89.234Z" style="fill:#fff;fill-rule:nonzero;"/><path d="M2406.85,270.566c0,14.893 -4.099,26.367 -12.298,34.424c-8.199,8.056 -19.725,12.085 -34.577,12.085l-28.869,-0l-0,-89.234l30.884,0c14.323,0 25.38,3.663 33.172,10.987c7.792,7.324 11.688,17.903 11.688,31.738Zm-25.024,0.855c0,-8.179 -1.617,-14.242 -4.852,-18.189c-3.235,-3.947 -8.148,-5.92 -14.74,-5.92l-7.019,-0l-0,49.987l5.371,0c7.324,0 12.695,-2.126 16.113,-6.378c3.418,-4.252 5.127,-10.752 5.127,-19.5Z" style="fill:#fff;fill-rule:nonzero;"/><path d="M2533.66,289.975c-0,5.534 -1.404,10.447 -4.211,14.74c-2.808,4.293 -6.857,7.63 -12.146,10.01c-5.29,2.38 -11.495,3.571 -18.616,3.571c-5.941,-0 -10.925,-0.418 -14.954,-1.252c-4.028,-0.834 -8.219,-2.289 -12.573,-4.364l-0,-21.484c4.598,2.36 9.379,4.201 14.343,5.524c4.964,1.322 9.522,1.983 13.672,1.983c3.581,0 6.205,-0.62 7.874,-1.861c1.668,-1.241 2.502,-2.838 2.502,-4.792c0,-1.22 -0.336,-2.288 -1.007,-3.204c-0.671,-0.915 -1.75,-1.841 -3.235,-2.777c-1.485,-0.936 -5.442,-2.848 -11.871,-5.737c-5.819,-2.645 -10.183,-5.209 -13.092,-7.691c-2.91,-2.482 -5.066,-5.33 -6.47,-8.545c-1.404,-3.214 -2.106,-7.019 -2.106,-11.413c0,-8.22 2.991,-14.628 8.973,-19.226c5.981,-4.598 14.2,-6.897 24.658,-6.897c9.236,-0 18.656,2.136 28.259,6.408l-7.385,18.616c-8.342,-3.825 -15.544,-5.737 -21.607,-5.737c-3.133,-0 -5.411,0.549 -6.836,1.648c-1.424,1.098 -2.136,2.461 -2.136,4.089c0,1.75 0.905,3.316 2.716,4.7c1.811,1.383 6.724,3.906 14.74,7.568c7.691,3.459 13.031,7.172 16.022,11.139c2.991,3.967 4.486,8.962 4.486,14.984Z" style="fill:#fff;fill-rule:nonzero;"/><rect x="2557.45" y="227.841" width="24.231" height="89.233" style="fill:#fff;fill-rule:nonzero;"/><path d="M2650.34,317.075l-24.109,-0l-0,-69.519l-21.79,-0l0,-19.715l67.627,0l0,19.715l-21.728,-0l-0,69.519Z" style="fill:#fff;fill-rule:nonzero;"/><path d="M2747.8,317.075l-52.978,-0l-0,-89.234l52.978,0l0,19.349l-28.87,-0l0,14.038l26.734,-0l-0,19.348l-26.734,-0l0,16.845l28.87,0l0,19.654Z" style="fill:#fff;fill-rule:nonzero;"/></g></g></svg>