<svg width="180" height="21" viewBox="0 0 180 21" fill="none" xmlns="http://www.w3.org/2000/svg">
<path fill-rule="evenodd" clip-rule="evenodd" d="M39 18.7073L39 20.6934C39 20.6934 34.265 20.6934 31.2274 20.6934C30.5668 20.6934 29.9334 20.3822 29.4663 19.8283C28.9992 19.2743 28.7368 18.523 28.7368 17.7395C28.7368 14.1367 28.7368 8.52083 28.7368 8.52083L29.6888 8.52083C30.4335 14.0015 34.2671 18.2624 39 18.7073Z" fill="#E1E1E1"/>
<path fill-rule="evenodd" clip-rule="evenodd" d="M-3.77604e-07 18.7073L-4.51226e-07 20.6934C-4.51226e-07 20.6934 4.73497 20.6934 7.77262 20.6934C8.43316 20.6934 9.06664 20.3822 9.53371 19.8283C10.0008 19.2743 10.2632 18.523 10.2632 17.7395C10.2632 14.1367 10.2632 8.52083 10.2632 8.52083L9.3112 8.52083C8.56653 14.0015 4.73289 18.2624 -3.77604e-07 18.7073Z" fill="#E1E1E1"/>
<rect x="11.8027" y="1.21726" width="4.10527" height="19.4762" rx="1" fill="#009270"/>
<rect x="17.4473" y="2.43452" width="4.10527" height="18.2589" rx="1" fill="#CBD97B"/>
<rect x="23.0928" width="4.10527" height="20.6934" rx="1" fill="#97A547"/>
<path d="M58.086 6.116V16H56.098V11.702H51.87V16H49.896V6.116H51.87V10.12H56.098V6.116H58.086ZM62.9705 6.116V16H60.9965V6.116H62.9705ZM74.5702 11.044C74.5702 12.024 74.3649 12.8873 73.9542 13.634C73.5436 14.3807 72.9462 14.964 72.1622 15.384C71.3876 15.7947 70.4636 16 69.3902 16H65.8762V6.116H69.3902C70.4636 6.116 71.3876 6.32133 72.1622 6.732C72.9462 7.13333 73.5436 7.70733 73.9542 8.454C74.3649 9.19133 74.5702 10.0547 74.5702 11.044ZM69.2222 14.236C70.2862 14.236 71.1076 13.956 71.6862 13.396C72.2742 12.836 72.5682 12.052 72.5682 11.044C72.5682 10.0267 72.2742 9.238 71.6862 8.678C71.1076 8.118 70.2862 7.838 69.2222 7.838H67.8502V14.236H69.2222ZM83.1881 14.012H79.2261L78.5261 16H76.4401L80.0801 6.228H82.3341L85.9601 16H83.8741L83.1881 14.012ZM82.6561 12.514L81.2001 8.342L79.7441 12.514H82.6561ZM92.6115 6.018C93.8435 6.018 94.8655 6.33533 95.6775 6.97C96.4895 7.60467 97.0262 8.468 97.2875 9.56H95.2155C95.0009 9.028 94.6649 8.608 94.2075 8.3C93.7595 7.992 93.2182 7.838 92.5835 7.838C92.0609 7.838 91.5895 7.96867 91.1695 8.23C90.7495 8.49133 90.4229 8.86467 90.1895 9.35C89.9562 9.83533 89.8395 10.4047 89.8395 11.058C89.8395 11.702 89.9562 12.2667 90.1895 12.752C90.4229 13.2373 90.7495 13.6107 91.1695 13.872C91.5895 14.1333 92.0609 14.264 92.5835 14.264C93.2182 14.264 93.7595 14.11 94.2075 13.802C94.6649 13.494 95.0009 13.074 95.2155 12.542H97.2875C97.0262 13.634 96.4895 14.4973 95.6775 15.132C94.8655 15.7667 93.8435 16.084 92.6115 16.084C91.6689 16.084 90.8335 15.874 90.1055 15.454C89.3869 15.0247 88.8269 14.4273 88.4255 13.662C88.0335 12.8967 87.8375 12.0287 87.8375 11.058C87.8375 10.078 88.0335 9.20533 88.4255 8.44C88.8269 7.67467 89.3869 7.082 90.1055 6.662C90.8242 6.23267 91.6595 6.018 92.6115 6.018ZM104.523 5.976C105.447 5.976 106.282 6.19067 107.029 6.62C107.785 7.04933 108.377 7.65133 108.807 8.426C109.245 9.19133 109.465 10.0593 109.465 11.03C109.465 12.0007 109.245 12.8733 108.807 13.648C108.377 14.4227 107.785 15.0247 107.029 15.454C106.282 15.8833 105.447 16.098 104.523 16.098C103.599 16.098 102.759 15.8833 102.003 15.454C101.256 15.0247 100.663 14.4227 100.225 13.648C99.7952 12.8733 99.5806 12.0007 99.5806 11.03C99.5806 10.0593 99.7952 9.19133 100.225 8.426C100.663 7.65133 101.256 7.04933 102.003 6.62C102.759 6.19067 103.599 5.976 104.523 5.976ZM104.523 7.796C103.944 7.796 103.435 7.92667 102.997 8.188C102.558 8.44933 102.213 8.82733 101.961 9.322C101.718 9.80733 101.597 10.3767 101.597 11.03C101.597 11.6833 101.718 12.2573 101.961 12.752C102.213 13.2373 102.558 13.6107 102.997 13.872C103.435 14.1333 103.944 14.264 104.523 14.264C105.101 14.264 105.61 14.1333 106.049 13.872C106.487 13.6107 106.828 13.2373 107.071 12.752C107.323 12.2573 107.449 11.6833 107.449 11.03C107.449 10.3767 107.323 9.80733 107.071 9.322C106.828 8.82733 106.487 8.44933 106.049 8.188C105.61 7.92667 105.101 7.796 104.523 7.796ZM114.043 14.488H117.361V16H112.069V6.116H114.043V14.488ZM121.63 14.488H124.948V16H119.656V6.116H121.63V14.488ZM129.217 7.684V10.246H132.717V11.758H129.217V14.418H133.137V16H127.243V6.116H133.137V7.684H129.217ZM148.259 16H146.285L141.861 9.28V16H139.887V6.116H141.861L146.285 12.892V6.116H148.259V16ZM155.799 5.976C156.723 5.976 157.559 6.19067 158.305 6.62C159.061 7.04933 159.654 7.65133 160.083 8.426C160.522 9.19133 160.741 10.0593 160.741 11.03C160.741 12.0007 160.522 12.8733 160.083 13.648C159.654 14.4227 159.061 15.0247 158.305 15.454C157.559 15.8833 156.723 16.098 155.799 16.098C154.875 16.098 154.035 15.8833 153.279 15.454C152.533 15.0247 151.94 14.4227 151.501 13.648C151.072 12.8733 150.857 12.0007 150.857 11.03C150.857 10.0593 151.072 9.19133 151.501 8.426C151.94 7.65133 152.533 7.04933 153.279 6.62C154.035 6.19067 154.875 5.976 155.799 5.976ZM155.799 7.796C155.221 7.796 154.712 7.92667 154.273 8.188C153.835 8.44933 153.489 8.82733 153.237 9.322C152.995 9.80733 152.873 10.3767 152.873 11.03C152.873 11.6833 152.995 12.2573 153.237 12.752C153.489 13.2373 153.835 13.6107 154.273 13.872C154.712 14.1333 155.221 14.264 155.799 14.264C156.378 14.264 156.887 14.1333 157.325 13.872C157.764 13.6107 158.105 13.2373 158.347 12.752C158.599 12.2573 158.725 11.6833 158.725 11.03C158.725 10.3767 158.599 9.80733 158.347 9.322C158.105 8.82733 157.764 8.44933 157.325 8.188C156.887 7.92667 156.378 7.796 155.799 7.796ZM170.066 6.116V7.684H167.336V16H165.362V7.684H162.646V6.116H170.066ZM174.246 7.684V10.246H177.746V11.758H174.246V14.418H178.166V16H172.272V6.116H178.166V7.684H174.246Z" fill="#3C3C3C"/>
</svg>
