<svg width="41" height="45" viewBox="0 0 41 45" fill="none" xmlns="http://www.w3.org/2000/svg">
<path d="M34.9948 5.79068C38.7583 9.41996 40.9108 14.3186 40.9971 19.4508C41.0834 24.583 39.0967 29.5464 35.4572 33.2915L34.9948 33.7528L25.3304 43.0713C24.1042 44.2532 22.458 44.9414 20.7253 44.9964C18.9925 45.0515 17.3029 44.4693 15.9986 43.3678L15.6706 43.0713L6.00401 33.7506C2.15959 30.0429 -0.000183105 25.0141 -0.000183105 19.7706C-0.000183105 14.5271 2.15959 9.49839 6.00401 5.79068C9.84843 2.08297 15.0626 0 20.4994 0C25.9362 0 31.1504 2.08297 34.9948 5.79068ZM20.4994 13.1805C19.6021 13.1805 18.7135 13.3509 17.8845 13.6821C17.0554 14.0133 16.3022 14.4987 15.6676 15.1107C15.0331 15.7226 14.5298 16.4491 14.1864 17.2487C13.843 18.0482 13.6663 18.9052 13.6663 19.7706C13.6663 20.6361 13.843 21.493 14.1864 22.2926C14.5298 23.0921 15.0331 23.8186 15.6676 24.4306C16.3022 25.0425 17.0554 25.528 17.8845 25.8591C18.7135 26.1903 19.6021 26.3608 20.4994 26.3608C22.3117 26.3608 24.0497 25.6665 25.3312 24.4306C26.6126 23.1947 27.3326 21.5184 27.3326 19.7706C27.3326 18.0228 26.6126 16.3466 25.3312 15.1107C24.0497 13.8748 22.3117 13.1805 20.4994 13.1805Z" fill="#2D2D2D"/>
</svg>
