<svg width="66" height="34" viewBox="0 0 66 34" fill="none" xmlns="http://www.w3.org/2000/svg">
<path fill-rule="evenodd" clip-rule="evenodd" d="M65.0391 30.7368L65.0391 34C65.0391 34 57.2594 34 52.2684 34C51.1831 34 50.1423 33.4886 49.3749 32.5785C48.6075 31.6683 48.1763 30.4338 48.1763 29.1466C48.1763 23.2271 48.1763 14 48.1763 14L49.7405 14C50.964 23.005 57.2628 30.0057 65.0391 30.7368Z" fill="#E1E1E1"/>
<path fill-rule="evenodd" clip-rule="evenodd" d="M0.960937 30.7368L0.960937 34C0.960937 34 8.74064 34 13.7316 34C14.8169 34 15.8577 33.4886 16.6251 32.5785C17.3925 31.6683 17.8237 30.4338 17.8237 29.1466C17.8237 23.2271 17.8237 14 17.8237 14L16.2595 14C15.036 23.005 8.73724 30.0057 0.960937 30.7368Z" fill="#E1E1E1"/>
<rect x="20.3535" y="2" width="6.7451" height="32" rx="1" fill="#009270"/>
<rect x="29.627" y="4" width="6.7451" height="30" rx="1" fill="#CBD97B"/>
<rect x="38.9023" width="6.7451" height="34" rx="1" fill="#97A547"/>
</svg>
