<svg width="35" height="35" viewBox="0 0 35 35" fill="none" xmlns="http://www.w3.org/2000/svg">
<path fill-rule="evenodd" clip-rule="evenodd" d="M21.1922 35L18.5 35C18.5 35 18.5 27.3877 18.5 22.504C18.5 21.4421 18.9219 20.4237 19.6728 19.6728C20.4237 18.9219 21.4421 18.5 22.504 18.5C27.3876 18.5 35 18.5 35 18.5L35 20.0305C27.5709 21.2277 21.7953 27.391 21.1922 35V35Z" fill="#CBD97B"/>
<path fill-rule="evenodd" clip-rule="evenodd" d="M13.8078 0L16.5 0C16.5 0 16.5 7.61235 16.5 12.496C16.5 13.5579 16.0781 14.5763 15.3272 15.3272C14.5763 16.0781 13.5579 16.5 12.496 16.5C7.61235 16.5 0 16.5 0 16.5L0 14.9695C7.42912 13.7723 13.2047 7.60902 13.8078 0V0Z" fill="#CBD97B"/>
<path fill-rule="evenodd" clip-rule="evenodd" d="M13.8078 35L16.5 35C16.5 35 16.5 27.3876 16.5 22.504C16.5 21.4421 16.0781 20.4237 15.3272 19.6728C14.5763 18.9219 13.5579 18.5 12.496 18.5C7.61235 18.5 -1.44248e-06 18.5 -1.44248e-06 18.5L-1.30868e-06 20.0305C7.42912 21.2277 13.2047 27.391 13.8078 35V35Z" fill="#CBD97B"/>
<path fill-rule="evenodd" clip-rule="evenodd" d="M21.1922 0L18.5 0C18.5 0 18.5 7.61235 18.5 12.496C18.5 13.5579 18.9219 14.5763 19.6728 15.3272C20.4237 16.0781 21.4421 16.5 22.504 16.5C27.3876 16.5 35 16.5 35 16.5L35 14.9695C27.5709 13.7723 21.7953 7.60902 21.1922 0V0Z" fill="#CBD97B"/>
</svg>
