<svg width="27" height="28" viewBox="0 0 27 28" fill="none" xmlns="http://www.w3.org/2000/svg">
<g clip-path="url(#clip0_3039_6356)">
<path d="M13.5 0.499513C17.0804 0.499513 20.5142 1.92183 23.0459 4.45357C25.5777 6.98531 27 10.4191 27 13.9995C27 17.5799 25.5777 21.0137 23.0459 23.5455C20.5142 26.0772 17.0804 27.4995 13.5 27.4995C9.91958 27.4995 6.4858 26.0772 3.95406 23.5455C1.42232 21.0137 -4.33598e-07 17.5799 -5.90104e-07 13.9995C-7.46609e-07 10.4191 1.42232 6.98531 3.95406 4.45357C6.4858 1.92183 9.91958 0.499513 13.5 0.499513ZM7.59375 13.1558C7.36997 13.1558 7.15536 13.2447 6.99713 13.4029C6.83889 13.5611 6.75 13.7757 6.75 13.9995C6.75 14.2233 6.83889 14.4379 6.99713 14.5961C7.15536 14.7544 7.36997 14.8433 7.59375 14.8433L17.3694 14.8433L13.7464 18.4646C13.5879 18.6231 13.4989 18.838 13.4989 19.062C13.4989 19.2861 13.5879 19.501 13.7464 19.6594C13.9048 19.8178 14.1197 19.9068 14.3438 19.9068C14.5678 19.9068 14.7827 19.8178 14.9411 19.6594L20.0036 14.5969C20.0822 14.5185 20.1445 14.4254 20.1871 14.3229C20.2296 14.2204 20.2515 14.1105 20.2515 13.9995C20.2515 13.8885 20.2296 13.7786 20.1871 13.6761C20.1445 13.5736 20.0822 13.4805 20.0036 13.4021L14.9411 8.33964C14.7827 8.1812 14.5678 8.0922 14.3438 8.0922C14.1197 8.0922 13.9048 8.1812 13.7464 8.33964C13.5879 8.49807 13.4989 8.71295 13.4989 8.93701C13.4989 9.16107 13.5879 9.37595 13.7464 9.53439L17.3694 13.1558L7.59375 13.1558Z" fill="#2D2D2D"/>
</g>
<defs>
<clipPath id="clip0_3039_6356">
<rect width="27" height="27" fill="white" transform="translate(0 27.4995) rotate(-90)"/>
</clipPath>
</defs>
</svg>
